<svg xmlns="http://www.w3.org/2000/svg" xmlns:xlink="http://www.w3.org/1999/xlink" xmlns:lucid="lucid" width="1300" height="1274.33"><g transform="translate(20 -20)" lucid:page-tab-id="0_0"><path d="M219.75 59.75c0 10.9-8.84 19.75-19.75 19.75-10.9 0-19.75-8.84-19.75-19.75C180.25 48.85 189.1 40 200 40c10.9 0 19.75 8.84 19.75 19.75z" stroke="#000" stroke-width="2" fill="#c1e4f7"/><path d="M160 40h80v158h-80z" fill="none"/><path d="M200 79.5v55.3l40 63.2m-40-63.2L160 198m0-98.75h80" stroke="#000" stroke-width="2" fill="none"/><use xlink:href="#a" transform="matrix(1,0,0,1,80,198) translate(99.025 14.6)"/><path d="M480 60h160v120H480z" stroke="#000" stroke-width="2" fill="#ffeca9"/><use xlink:href="#b" transform="matrix(1,0,0,1,480,60) translate(45.029999999999994 63.15)"/><path d="M760 60h160v120H760z" stroke="#000" stroke-width="2" fill="#c7e8ac"/><use xlink:href="#c" transform="matrix(1,0,0,1,760,60) translate(50.029999999999994 63.15)"/><path d="M1100 60h160v120h-160z" stroke="#000" stroke-width="2" fill="#f5b5c8"/><use xlink:href="#d" transform="matrix(1,0,0,1,1100,60) translate(27.004999999999995 51.9)"/><use xlink:href="#e" transform="matrix(1,0,0,1,1100,60) translate(88.005 51.9)"/><use xlink:href="#f" transform="matrix(1,0,0,1,1100,60) translate(40.004999999999995 73.5)"/><path d="M200 137.67v1144.66" fill="none"/><path d="M200 137.67v10.04m0 10.05v20.08m0 10.04v20.1m0 10.03v20.08m0 10.04v20.08m0 10.04v20.08m0 10.04v20.1m0 10.03v20.07m0 10.04v20.1m0 10.03v20.08m0 10.06v20.08m0 10.04v20.08m0 10.04v20.08m0 10.04v20.1m0 10.03v20.08m0 10.04v20.08m0 10.04v20.07m0 10.04v20.1m0 10.04v20.08m0 10.04v20.08m0 10.04v20.08m0 10.04v20.1m0 10.03v20.08m0 10.05v20.08m0 10.04v20.08m0 10.04v20.08m0 10.04v20.08m0 10.04v20.08m0 10.04v20.08m0 10.05v20.07m0 10.04v20.1m0 10.03v20.08m0 10.05v20.1m0 10.03v20.08m0 10.04v20.08m0 10.04V1202m0 10.04v20.1m0 10.03v20.08m0 10.04v10.03M200 137.7v-4.03M200 1282.3v1.03" stroke="#000" stroke-width="2" fill="none"/><path d="M560 182v1100.33" fill="none"/><path d="M560 182v9.9m0 9.93v19.82m0 9.9v19.84m0 9.9v19.83m0 9.9v19.84m0 9.9v19.84m0 9.92v19.82m0 9.92v19.82m0 9.92v19.82m0 9.9v19.84m0 9.9v19.84m0 9.9v19.84m0 9.9v19.84m0 9.9v19.84m0 9.9v19.83m0 9.92V638m0 9.9v19.83m0 9.9v19.84m0 9.9v19.84m0 9.92v19.83m0 9.9v19.84m0 9.9v19.82m0 9.92v19.82m0 9.92v19.82m0 9.9v19.84m0 9.9v19.84m0 9.9v19.84m0 9.9v19.84m0 9.9v19.84m0 9.9v19.83m0 9.92v19.82m0 9.92v19.8m0 9.92v19.83m0 9.9v19.84m0 9.9v19.83m0 9.9v19.84m0 9.9v19.83m0 9.92v9.9" stroke="#000" stroke-width="2" fill="none"/><path d="M561 182.03h-2V181h2z"/><path d="M560 1282.3v1.03" stroke="#000" stroke-width="2" fill="none"/><path d="M840 182v1097" fill="none"/><path d="M840 182v9.88m0 9.9v19.75m0 9.88v19.78m0 9.88v19.77m0 9.88v19.78m0 9.88v19.77m0 9.88v19.77m0 9.9v19.75m0 9.9v19.75m0 9.88v19.77m0 9.88v19.77m0 9.88v19.77m0 9.88v19.77m0 9.88v19.77m0 9.88v19.76m0 9.9v19.75m0 9.9v19.76m0 9.88v19.77m0 9.9v19.76m0 9.88v19.77m0 9.9v19.76m0 9.88v19.76m0 9.9v19.75m0 9.9v19.75m0 9.88v19.77m0 9.88v19.77m0 9.88v19.77m0 9.88v19.77m0 9.88v19.77m0 9.88v19.76m0 9.88v19.76m0 9.9v19.75m0 9.87v19.77m0 9.88v19.77m0 9.87v19.77m0 9.88v19.77m0 9.87v19.76m0 9.9v9.87" stroke="#000" stroke-width="2" fill="none"/><path d="M841 182.03h-2V181h2z"/><path d="M840 1278.97v1.03" stroke="#000" stroke-width="2" fill="none"/><path d="M1180 182v1097" fill="none"/><path d="M1180 182v9.88m0 9.9v19.75m0 9.88v19.78m0 9.88v19.77m0 9.88v19.78m0 9.88v19.77m0 9.88v19.77m0 9.9v19.75m0 9.9v19.75m0 9.88v19.77m0 9.88v19.77m0 9.88v19.77m0 9.88v19.77m0 9.88v19.77m0 9.88v19.76m0 9.9v19.75m0 9.9v19.76m0 9.88v19.77m0 9.9v19.76m0 9.88v19.77m0 9.9v19.76m0 9.88v19.76m0 9.9v19.75m0 9.9v19.75m0 9.88v19.77m0 9.88v19.77m0 9.88v19.77m0 9.88v19.77m0 9.88v19.77m0 9.88v19.76m0 9.88v19.76m0 9.9v19.75m0 9.87v19.77m0 9.88v19.77m0 9.87v19.77m0 9.88v19.77m0 9.87v19.76m0 9.9v9.87" stroke="#000" stroke-width="2" fill="none"/><path d="M1181 182.03h-2V181h2z"/><path d="M1180 1278.97v1.03" stroke="#000" stroke-width="2" fill="none"/><path d="M304.07 252H201v-2h103.07zm216.43 0h-85.57v-2h85.57z"/><path d="M201.03 252H200v-2h1.03zM535.76 251l-14.26 4.64v-9.28z"/><path d="M539 251l-18.5 6v-12zm-16.5 3.26l10.03-3.26-10.03-3.26z"/><use xlink:href="#g" transform="matrix(1,0,0,1,304.075,240.20000000000002) translate(0 14.4)"/><use xlink:href="#h" transform="matrix(1,0,0,1,304.075,240.20000000000002) translate(48 14.4)"/><path d="M322.65 344H201v-2h121.65zm197.85 0H416.35v-2H520.5zM535.76 343l-14.26 4.64v-9.28z"/><path d="M539 343l-18.5 6v-12zm-16.5 3.26l10.03-3.26-10.03-3.26zM201.03 344H200v-2h1.03z"/><use xlink:href="#i" transform="matrix(1,0,0,1,322.65,332.2) translate(0 14.4)"/><use xlink:href="#j" transform="matrix(1,0,0,1,322.65,332.2) translate(27.8 14.4)"/><use xlink:href="#k" transform="matrix(1,0,0,1,322.65,332.2) translate(57.8 14.4)"/><path d="M609.5 919.78l-10 .08v-2l9.97-.08zm29.93-.23l-19.96.15-.02-2 19.96-.15zm149.68-1.16l-13.7.1v-2l13.7-.1zm29.95-.24l-19.96.16-.02-2 19.95-.16zM839 918l-9.97.08-.02-2 10-.07zM598.54 923.5l-14.3-4.52 14.23-4.75z"/><path d="M599.55 924.87L581 919l18.45-6.15zm-12.08-5.92l10.06 3.18-.05-6.52zM840 918H839v-2h1z"/><use xlink:href="#l" transform="matrix(1,0,0,1,645.6,907.2) translate(0 14.4)"/><use xlink:href="#m" transform="matrix(1,0,0,1,645.6,907.2) translate(58.900000000000006 14.4)"/><path d="M609.9 1048h-10.4v-2h10.4zm31.22 0h-20.8v-2h20.8zm156.07 0h-20.82v-2h20.8zm20.8 0h-10.4v-2H818zm-52.02 0H755.4v-2h10.58zM598.5 1051.64l-14.26-4.64 14.26-4.64z"/><path d="M599.5 1053l-18.5-6 18.5-6zm-12.03-6l10.03 3.26v-6.52zM819 1048h-1.03v-2H819z"/><use xlink:href="#l" transform="matrix(1,0,0,1,644.6,1036.2) translate(0 14.4)"/><use xlink:href="#n" transform="matrix(1,0,0,1,644.6,1036.2) translate(58.900000000000006 14.4)"/><path d="M40 600h100v20l-10 10H40z" fill="#e5e5e5"/><path d="M140 600v20l-10 10H40" stroke="#000" stroke-width="2" fill="none"/><path d="M40 600h1180v520H40zM40 1016.9h20m15 0h20m15 0h20m15 0h20m15 0h20m15 0h20m15 0h20m15 0h20m15 0h20m15 0h20m15 0h20m15 0h20m15 0h20m15 0h20m15 0h20m15 0h20m15 0h20m15 0h20m15 0h20m15 0h20m15 0h20m15 0h20m15 0h20m15 0h20m15 0h20m15 0h20m15 0h20m15 0h20m15 0h20m15 0h20m15 0h20m15 0h20m15 0h20m15 0h20" stroke="#000" stroke-width="2" fill="none"/><use xlink:href="#o" transform="matrix(1,0,0,1,48,600) translate(0 18.6)"/><use xlink:href="#p" transform="matrix(1,0,0,1,52,638) translate(0 18.6)"/><use xlink:href="#q" transform="matrix(1,0,0,1,52,638) translate(48.55 18.6)"/><use xlink:href="#r" transform="matrix(1,0,0,1,52,1024.896551724138) translate(0 18.6)"/><path d="M228.83 300.76l-10.32.1v-2l10.3-.1zm30.95-.26l-20.63.17-.02-2 20.64-.17zm30.96-.26l-20.64.18-.02-2 20.64-.18zm30.95-.25l-20.65.16v-2l20.62-.17zm123.8-1.05l-12.65.1v-2l12.64-.1zm30.96-.25l-20.63.17-.02-2 20.65-.17zm30.96-.26l-20.64.17-.02-2 20.64-.16zm30.95-.26l-20.63.17-.02-2 20.64-.17zM559 298l-10.3.1-.03-2L559 296zM217.54 304.5l-14.3-4.53 14.22-4.75z"/><path d="M218.55 305.86L200 300l18.45-6.17zm-12.08-5.9l10.06 3.16-.06-6.52zM560 298H559v-2h1z"/><use xlink:href="#s" transform="matrix(1,0,0,1,327.15,287.7) translate(0 14.4)"/><use xlink:href="#t" transform="matrix(1,0,0,1,327.15,287.7) translate(63.85000000000001 14.4)"/><path d="M559 966v2l-10.32-.06v-2zm-20.63-.12v2l-20.65-.1v-2zm-30.96-.17v2l-20.63-.1v-2zm-30.94-.16v2l-20.65-.12.02-2zm-163.83-.9v2l-11.6-.08.02-2zm-21.9-.14v2l-20.64-.1v-2zm-30.95-.17v2l-20.65-.1v-2zm-30.95-.17l-.02 2-10.3-.06v-2zM217.48 969.73l-14.24-4.7 14.3-4.57z"/><path d="M218.47 971.1L200 965l18.54-5.9zm-12-6.06l10 3.3.05-6.5zM560 966v2h-1.03v-2z"/><use xlink:href="#s" transform="matrix(1,0,0,1,312.625,955.2) translate(0 14.4)"/><use xlink:href="#m" transform="matrix(1,0,0,1,312.625,955.2) translate(63.85000000000001 14.4)"/><path d="M559 1102v2l-10.32-.06v-2zm-20.63-.12v2l-20.65-.1v-2zm-30.96-.17v2l-20.63-.1v-2zm-30.94-.16v2l-20.65-.12.02-2zm-30.95-.18v2l-13.65-.07v-2zm-123.8-.68l-.02 2-20.64-.12v-2zm-30.97-.18v2l-20.64-.1v-2zm-30.95-.17v2l-20.65-.1v-2zm-30.95-.17l-.02 2-10.3-.06v-2zM217.48 1105.73l-14.24-4.7 14.3-4.57z"/><path d="M218.47 1107.1L200 1101l18.54-5.9zm-12-6.06l10 3.3.05-6.5zM560 1102v2h-1.03v-2z"/><use xlink:href="#s" transform="matrix(1,0,0,1,328.15,1091.1999999999998) translate(0 14.4)"/><use xlink:href="#u" transform="matrix(1,0,0,1,328.15,1091.1999999999998) translate(63.85000000000001 14.4)"/><path d="M0 280h100v20l-10 10H0z" fill="#c1e4f7"/><path d="M0 280h900v220H0z" stroke="#000" stroke-width="2" fill="none"/><path d="M100 280v20l-10 10H0" stroke="#000" stroke-width="2" fill="#c1e4f7"/><use xlink:href="#v" transform="matrix(1,0,0,1,8,280) translate(0 18.6)"/><use xlink:href="#w" transform="matrix(1,0,0,1,12,318) translate(0 18.6)"/><use xlink:href="#x" transform="matrix(1,0,0,1,12,318) translate(85.95 18.6)"/><path d="M228.82 378H218.5v-2h10.32zm30.95 0h-20.63v-2h20.63zm30.96 0H270.1v-2h20.63zm25.42 0h-15.1v-2h15.1zm160.3 0h-20.63v-2h20.64zm30.96 0h-20.63v-2h20.64zm30.96 0h-20.63v-2h20.63zm20.64 0h-10.32v-2H559zm-113.5 0h-1.65v-2h1.65zM217.5 381.64L203.24 377l14.26-4.64z"/><path d="M218.5 383l-18.5-6 18.5-6zm-12.03-6l10.03 3.26v-6.52zM560 378h-1.03v-2H560z"/><use xlink:href="#s" transform="matrix(1,0,0,1,316.15,366.2) translate(0 14.4)"/><use xlink:href="#y" transform="matrix(1,0,0,1,316.15,366.2) translate(63.85000000000001 14.4)"/><path d="M200 400h100v20l-10 10h-90z" fill="#fff"/><path d="M200 400h360v100H200z" stroke="#000" stroke-width="2" fill="none"/><path d="M300 400v20l-10 10h-90" stroke="#000" stroke-width="2" fill="#fff"/><use xlink:href="#z" transform="matrix(1,0,0,1,208,400) translate(0 18.6)"/><path d="M297.05 460H200v-2h97.05zm223.45 0h-79.55v-2h79.55z"/><path d="M200.03 460H199v-2h1.03zM535.76 459l-14.26 4.64v-9.28z"/><path d="M539 459l-18.5 6v-12zm-16.5 3.26l10.03-3.26-10.03-3.26z"/><use xlink:href="#A" transform="matrix(1,0,0,1,297.05,448.2) translate(0 14.4)"/><use xlink:href="#B" transform="matrix(1,0,0,1,297.05,448.2) translate(71.95 14.4)"/><path d="M341.55 532H201v-2h140.55zm178.95 0H397.45v-2H520.5z"/><path d="M201.03 532H200v-2h1.03z"/><path d="M535.76 531l-14.26 4.64v-9.28z" fill="#fff"/><path d="M539 531l-18.5 6v-12zm-16.5 3.26l10.03-3.26-10.03-3.26z"/><use xlink:href="#C" transform="matrix(1,0,0,1,341.55,520.2) translate(0 14.4)"/><path d="M668.23 550H582v-2h86.23zm132.27 0h-68.73v-2h68.73z"/><path d="M582.03 550H581v-2h1.03zM815.76 549l-14.26 4.64v-9.28z"/><path d="M819 549l-18.5 6v-12zm-16.5 3.26l10.03-3.26-10.03-3.26z"/><use xlink:href="#D" transform="matrix(1,0,0,1,668.225,538.2) translate(0 14.4)"/><path d="M933.17 640H862v-2h71.17zm207.33 0h-53.67v-2h53.67z"/><path d="M862.03 640H861v-2h1.03z"/><path d="M1155.76 639l-14.26 4.64v-9.28z" fill="#fff"/><path d="M1159 639l-18.5 6v-12zm-16.5 3.26l10.03-3.26-10.03-3.26z"/><use xlink:href="#E" transform="matrix(1,0,0,1,933.175,628.2) translate(0 14.4)"/><use xlink:href="#h" transform="matrix(1,0,0,1,933.175,628.2) translate(70.80000000000001 14.4)"/><path d="M1179 678v2l-9.72-.06v-2zm-19.42-.12v2l-19.43-.1v-2zm-29.13-.17l-.02 2-19.42-.1.02-2zm-29.14-.16v2l-16.95-.1v-2zm-174.8-1.03l-.02 2-19.42-.1v-2zm-29.14-.16l-.02 2-19.42-.12v-2zm-29.14-.17v2l-9.72-.06v-2zM857.47 681.74l-14.23-4.72 14.3-4.55z"/><path d="M858.47 683.12L840 677l18.54-5.9zm-12-6.08l10 3.32.05-6.52zM1180 678v2h-1.03v-2z"/><use xlink:href="#F" transform="matrix(1,0,0,1,935.65,667.2) translate(0 14.4)"/><use xlink:href="#G" transform="matrix(1,0,0,1,935.65,667.2) translate(67.80000000000001 14.4)"/><path d="M889.5 678h-10v-2h10zm29.93 0h-19.96v-2h19.96zm16.22 0h-6.23v-2h6.23zm193.43 0h-19.96v-2h19.96zm29.95 0h-19.96v-2h19.96zm19.97 0h-9.98v-2h9.98zm-79.87 0h-14.78v-2h14.78zM878.5 681.64L864.24 677l14.26-4.64z"/><path d="M879.5 683l-18.5-6 18.5-6zm-12.03-6l10.03 3.26v-6.52zM1180 678h-1.03v-2h1.03zM609.9 722h-10.4v-2h10.4zm15.75 0h-5.34v-2h5.35zm171.54 0h-20.82v-2h20.8zm20.8 0h-10.4v-2H818zM598.5 725.64L584.24 721l14.26-4.64z"/><path d="M599.5 727l-18.5-6 18.5-6zm-12.03-6l10.03 3.26v-6.52zM819 722h-1.03v-2H819z"/><use xlink:href="#F" transform="matrix(1,0,0,1,625.65,710.2) translate(0 14.4)"/><use xlink:href="#G" transform="matrix(1,0,0,1,625.65,710.2) translate(67.80000000000001 14.4)"/><path d="M316.1 761.36l-97.6.54v-2l97.6-.55zM559 760l-115.1.65v-2L559 758zM217.53 765.54l-14.3-4.56 14.25-4.7z"/><path d="M218.54 766.9L200 761l18.47-6.1zm-12.07-5.94l10.05 3.2-.04-6.5zM560 760H559v-2h1z"/><use xlink:href="#s" transform="matrix(1,0,0,1,316.1,749.2) translate(0 14.4)"/><use xlink:href="#H" transform="matrix(1,0,0,1,316.1,749.2) translate(63.85000000000001 14.4)"/><path d="M80 800h100v20l-10 10H80z" fill="#e5e5e5"/><path d="M180 800v20l-10 10H80" stroke="#000" stroke-width="2" fill="none"/><path d="M80 800h1120v180H80zM80 890h20m15 0h20m15 0h20m15 0h20m15 0h20m15 0h20m15 0h20m15 0h20m15 0h20m15 0h20m15 0h20m15 0h20m15 0h20m15 0h20m15 0h20m15 0h20m15 0h20m15 0h20m15 0h20m15 0h20m15 0h20m15 0h20m15 0h20m15 0h20m15 0h20m15 0h20m15 0h20m15 0h20m15 0h20m15 0h20m15 0h20m15 0h20" stroke="#000" stroke-width="2" fill="none"/><use xlink:href="#o" transform="matrix(1,0,0,1,88,800) translate(0 18.6)"/><use xlink:href="#I" transform="matrix(1,0,0,1,92,838) translate(0 18.6)"/><use xlink:href="#r" transform="matrix(1,0,0,1,92,898) translate(0 18.6)"/><path d="M889.82 783.8l-10.3.08-.03-2 10.3-.07zm30.95-.2l-20.63.14-.02-2 20.63-.14zm25.25-.17l-14.94.1v-2l14.94-.1zm129.47-.87h-1.53v-2h1.5zm30.93-.2l-20.63.13v-2l20.62-.15zm30.95-.2l-20.63.12-.02-2 20.63-.13zM1158 782l-10.3.08-.02-2 10.3-.07zM878.53 787.52l-14.3-4.54 14.24-4.73z"/><path d="M879.54 788.9L861 783l18.46-6.14zm-12.07-5.94l10.05 3.2-.04-6.53zM1159 781h3v.98l-4.02.03v-2h1.02z"/><g><use xlink:href="#J" transform="matrix(1,0,0,1,946.025,771.2) translate(0 14.4)"/><use xlink:href="#K" transform="matrix(1,0,0,1,946.025,771.2) translate(47 14.4)"/></g><path d="M609.9 820h-10.4v-2h10.4zm23.48 0H620.3v-2h13.08zm132.6 0h-20.8v-2h20.8zm31.2 0h-20.8v-2h20.8zm20.82 0h-10.4v-2H818zm-83.24 0h-.48v-2h.48zM598.5 823.64L584.24 819l14.26-4.64z"/><path d="M599.5 825l-18.5-6 18.5-6zm-12.03-6l10.03 3.26v-6.52zM819 820h-1.03v-2H819z"/><g><use xlink:href="#J" transform="matrix(1,0,0,1,633.3774384255302,808.2) translate(0 14.4)"/><use xlink:href="#L" transform="matrix(1,0,0,1,633.3774384255302,808.2) translate(47 14.4)"/></g><path d="M228.83 857.84l-10.32.06v-2l10.3-.06zm30.95-.17l-20.64.1v-2l20.63-.1zm30.95-.17l-20.63.1v-2l20.62-.1zm30.4-.17l-20.08.1v-2l20.07-.1zm124.38-.7l-6.63.04v-2l6.62-.03zm30.96-.17l-20.64.12v-2l20.63-.12zm30.95-.17l-20.62.1v-2l20.62-.1zm30.97-.18l-20.64.1v-2l20.63-.1zm20.64-.1l-10.3.04-.02-2 10.3-.05zM217.53 861.54l-14.3-4.56 14.25-4.7z"/><path d="M218.54 862.9L200 857l18.47-6.1zm-12.07-5.94l10.05 3.2-.04-6.5zM560 856H559v-2h1z"/><g><use xlink:href="#s" transform="matrix(1,0,0,1,321.125,845.2) translate(0 14.4)"/><use xlink:href="#L" transform="matrix(1,0,0,1,321.125,845.2) translate(63.85000000000001 14.4)"/></g><path d="M540 240h40v860h-40z" fill="#ffeca9"/><path d="M566.67 240H580v9.9m0 9.87v19.77m0 9.9v19.76m0 9.88v19.77m0 9.9v19.76m0 9.9v19.76m0 9.9v19.76m0 9.88v19.77m0 9.9v19.76m0 9.88v19.78m0 9.9v19.76m0 9.88v19.77m0 9.88v19.77m0 9.88v19.77m0 9.9v19.76m0 9.88v19.77m0 9.9v19.77m0 9.88v19.77m0 9.9v19.76m0 9.88v19.77m0 9.9v19.76m0 9.87v19.77m0 9.9v19.76m0 9.88v19.77m0 9.9v19.76m0 9.9v19.76m0 9.9v19.76m0 9.88v19.77m0 9.9v19.76m0 9.88v9.9h-13.33m-13.34 0H540v-9.9m0-9.87v-19.77m0-9.9v-19.76m0-9.88v-19.77m0-9.9V971.5m0-9.9v-19.76m0-9.9V912.2m0-9.88v-19.77m0-9.9v-19.76m0-9.88V823.2m0-9.9v-19.76m0-9.88V763.9m0-9.88v-19.77m0-9.88V704.6m0-9.9v-19.76m0-9.88V645.3m0-9.9v-19.77m0-9.88v-19.77m0-9.9v-19.76m0-9.88v-19.77m0-9.9v-19.76m0-9.87v-19.77m0-9.9V437.7m0-9.88v-19.77m0-9.9V378.4m0-9.9v-19.76m0-9.9V319.1m0-9.88v-19.77m0-9.9v-19.76m0-9.88V240h13.33" stroke="#000" stroke-width="2" fill="none"/><path d="M1160 640h40v140h-40z" fill="#ffbbb1"/><path d="M1186.67 640H1200v9.33m0 9.34v18.66m0 9.34v18.66m0 9.34v18.66m0 9.34v18.66m0 9.34V780h-13.33m-13.34 0H1160v-9.33m0-9.34v-18.66m0-9.34v-18.66m0-9.34v-18.66m0-9.34v-18.66m0-9.34V640h13.33" stroke="#000" stroke-width="2" fill="none"/><path d="M820 540h40v520h-40z" fill="#c7e8ac"/><path d="M846.67 540H860v10.2m0 10.2v20.38m0 10.2v20.4m0 10.2v20.38m0 10.2v20.4m0 10.2v20.38m0 10.2v20.4m0 10.18v20.4m0 10.2v20.38m0 10.2v20.4m0 10.2v20.38m0 10.2v20.4m0 10.18v20.4m0 10.2v20.38m0 10.2v20.4m0 10.2V1009m0 10.2v20.4m0 10.18v10.2h-13.33m-13.34 0H820v-10.2m0-10.2v-20.38m0-10.2v-20.4m0-10.2v-20.38m0-10.2v-20.4m0-10.2v-20.38m0-10.2v-20.4m0-10.18v-20.4m0-10.2V805.1m0-10.2v-20.4m0-10.2v-20.38m0-10.2v-20.4m0-10.18v-20.4m0-10.2v-20.38m0-10.2v-20.4m0-10.2V591m0-10.2v-20.4m0-10.18V540h13.33" stroke="#000" stroke-width="2" fill="none"/><defs><path d="M205 0l-28-72H64L36 0H1l101-248h38L239 0h-34zm-38-99l-47-123c-12 45-31 82-46 123h93" id="M"/><path d="M96-169c-40 0-48 33-48 73s9 75 48 75c24 0 41-14 43-38l32 2c-6 37-31 61-74 61-59 0-76-41-82-99-10-93 101-131 147-64 4 7 5 14 7 22l-32 3c-4-21-16-35-41-35" id="N"/><path d="M59-47c-2 24 18 29 38 22v24C64 9 27 4 27-40v-127H5v-23h24l9-43h21v43h35v23H59v120" id="O"/><path d="M100-194c62-1 85 37 85 99 1 63-27 99-86 99S16-35 15-95c0-66 28-99 85-99zM99-20c44 1 53-31 53-75 0-43-8-75-51-75s-53 32-53 75 10 74 51 75" id="P"/><path d="M114-163C36-179 61-72 57 0H25l-1-190h30c1 12-1 29 2 39 6-27 23-49 58-41v29" id="Q"/><g id="a"><use transform="matrix(0.05,0,0,0.05,0,0)" xlink:href="#M"/><use transform="matrix(0.05,0,0,0.05,12,0)" xlink:href="#N"/><use transform="matrix(0.05,0,0,0.05,21,0)" xlink:href="#O"/><use transform="matrix(0.05,0,0,0.05,26,0)" xlink:href="#P"/><use transform="matrix(0.05,0,0,0.05,36,0)" xlink:href="#Q"/></g><path d="M33 0v-248h34V0H33" id="R"/><path d="M117-194c89-4 53 116 60 194h-32v-121c0-31-8-49-39-48C34-167 62-67 57 0H25l-1-190h30c1 10-1 24 2 32 11-22 29-35 61-36" id="S"/><path d="M100-194c63 0 86 42 84 106H49c0 40 14 67 53 68 26 1 43-12 49-29l28 8c-11 28-37 45-77 45C44 4 14-33 15-96c1-61 26-98 85-98zm52 81c6-60-76-77-97-28-3 7-6 17-6 28h103" id="T"/><path d="M101-234c-31-9-42 10-38 44h38v23H63V0H32v-167H5v-23h27c-7-52 17-82 69-68v24" id="U"/><path d="M141-36C126-15 110 5 73 4 37 3 15-17 15-53c-1-64 63-63 125-63 3-35-9-54-41-54-24 1-41 7-42 31l-33-3c5-37 33-52 76-52 45 0 72 20 72 64v82c-1 20 7 32 28 27v20c-31 9-61-2-59-35zM48-53c0 20 12 33 32 33 41-3 63-29 60-74-43 2-92-5-92 41" id="V"/><g id="b"><use transform="matrix(0.05,0,0,0.05,0,0)" xlink:href="#R"/><use transform="matrix(0.05,0,0,0.05,5,0)" xlink:href="#S"/><use transform="matrix(0.05,0,0,0.05,15,0)" xlink:href="#O"/><use transform="matrix(0.05,0,0,0.05,20,0)" xlink:href="#T"/><use transform="matrix(0.05,0,0,0.05,30,0)" xlink:href="#Q"/><use transform="matrix(0.05,0,0,0.05,35.95,0)" xlink:href="#U"/><use transform="matrix(0.05,0,0,0.05,40.95,0)" xlink:href="#V"/><use transform="matrix(0.05,0,0,0.05,50.95,0)" xlink:href="#N"/><use transform="matrix(0.05,0,0,0.05,59.95,0)" xlink:href="#T"/><path d="M-.9 1.25h71.75v1.32H-.9z"/></g><path d="M185-189c-5-48-123-54-124 2 14 75 158 14 163 119 3 78-121 87-175 55-17-10-28-26-33-46l33-7c5 56 141 63 141-1 0-78-155-14-162-118-5-82 145-84 179-34 5 7 8 16 11 25" id="W"/><path d="M179-190L93 31C79 59 56 82 12 73V49c39 6 53-20 64-50L1-190h34L92-34l54-156h33" id="X"/><path d="M135-143c-3-34-86-38-87 0 15 53 115 12 119 90S17 21 10-45l28-5c4 36 97 45 98 0-10-56-113-15-118-90-4-57 82-63 122-42 12 7 21 19 24 35" id="Y"/><path d="M210-169c-67 3-38 105-44 169h-31v-121c0-29-5-50-35-48C34-165 62-65 56 0H25l-1-190h30c1 10-1 24 2 32 10-44 99-50 107 0 11-21 27-35 58-36 85-2 47 119 55 194h-31v-121c0-29-5-49-35-48" id="Z"/><g id="c"><use transform="matrix(0.05,0,0,0.05,0,0)" xlink:href="#W"/><use transform="matrix(0.05,0,0,0.05,12,0)" xlink:href="#X"/><use transform="matrix(0.05,0,0,0.05,21,0)" xlink:href="#Y"/><use transform="matrix(0.05,0,0,0.05,30,0)" xlink:href="#O"/><use transform="matrix(0.05,0,0,0.05,35,0)" xlink:href="#T"/><use transform="matrix(0.05,0,0,0.05,45,0)" xlink:href="#Z"/><path d="M-.9 1.25h61.75v1.32H-.9z"/></g><path d="M106-169C34-169 62-67 57 0H25v-261h32l-1 103c12-21 28-36 61-36 89 0 53 116 60 194h-32v-121c2-32-8-49-39-48" id="aa"/><g id="d"><use transform="matrix(0.05,0,0,0.05,0,0)" xlink:href="#M"/><use transform="matrix(0.05,0,0,0.05,12,0)" xlink:href="#O"/><use transform="matrix(0.05,0,0,0.05,17,0)" xlink:href="#aa"/><use transform="matrix(0.05,0,0,0.05,27,0)" xlink:href="#T"/><use transform="matrix(0.05,0,0,0.05,37,0)" xlink:href="#S"/><use transform="matrix(0.05,0,0,0.05,47,0)" xlink:href="#Y"/><path d="M-.9 1.25h62.8v1.32H-.9z"/></g><path d="M143 0L79-87 56-68V0H24v-261h32v163l83-92h37l-77 82L181 0h-38" id="ab"/><g id="e"><use transform="matrix(0.05,0,0,0.05,0,0)" xlink:href="#W"/><use transform="matrix(0.05,0,0,0.05,12,0)" xlink:href="#O"/><use transform="matrix(0.05,0,0,0.05,17,0)" xlink:href="#P"/><use transform="matrix(0.05,0,0,0.05,27,0)" xlink:href="#N"/><use transform="matrix(0.05,0,0,0.05,36,0)" xlink:href="#ab"/><path d="M-.9 1.25h46.8v1.32H-.9z"/></g><path d="M30 0v-248h187v28H63v79h144v27H63v87h162V0H30" id="ac"/><path d="M141 0L90-78 38 0H4l68-98-65-92h35l48 74 47-74h35l-64 92 68 98h-35" id="ad"/><path d="M177-190C167-65 218 103 67 71c-23-6-38-20-44-43l32-5c15 47 100 32 89-28v-30C133-14 115 1 83 1 29 1 15-40 15-95c0-56 16-97 71-98 29-1 48 16 59 35 1-10 0-23 2-32h30zM94-22c36 0 50-32 50-73 0-42-14-75-50-75-39 0-46 34-46 75s6 73 46 73" id="ae"/><g id="f"><use transform="matrix(0.05,0,0,0.05,0,0)" xlink:href="#ac"/><use transform="matrix(0.05,0,0,0.05,12,0)" xlink:href="#ad"/><use transform="matrix(0.05,0,0,0.05,21,0)" xlink:href="#N"/><use transform="matrix(0.05,0,0,0.05,30,0)" xlink:href="#aa"/><use transform="matrix(0.05,0,0,0.05,40,0)" xlink:href="#V"/><use transform="matrix(0.05,0,0,0.05,50,0)" xlink:href="#S"/><use transform="matrix(0.05,0,0,0.05,60,0)" xlink:href="#ae"/><use transform="matrix(0.05,0,0,0.05,70,0)" xlink:href="#T"/><path d="M-.9 1.25h81.8v1.32H-.9z"/></g><path d="M84 4C-5 8 30-112 23-190h32v120c0 31 7 50 39 49 72-2 45-101 50-169h31l1 190h-30c-1-10 1-25-2-33-11 22-28 36-60 37" id="af"/><g id="g"><use transform="matrix(0.05,0,0,0.05,0,0)" xlink:href="#R"/><use transform="matrix(0.05,0,0,0.05,5,0)" xlink:href="#Y"/><use transform="matrix(0.05,0,0,0.05,14,0)" xlink:href="#Y"/><use transform="matrix(0.05,0,0,0.05,23,0)" xlink:href="#af"/><use transform="matrix(0.05,0,0,0.05,33,0)" xlink:href="#T"/></g><path d="M212-179c-10-28-35-45-73-45-59 0-87 40-87 99 0 60 29 101 89 101 43 0 62-24 78-52l27 14C228-24 195 4 139 4 59 4 22-46 18-125c-6-104 99-153 187-111 19 9 31 26 39 46" id="ag"/><path d="M85-194c31 0 48 13 60 33l-1-100h32l1 261h-30c-2-10 0-23-3-31C134-8 116 4 85 4 32 4 16-35 15-94c0-66 23-100 70-100zm9 24c-40 0-46 34-46 75 0 40 6 74 45 74 42 0 51-32 51-76 0-42-9-74-50-73" id="ah"/><g id="h"><use transform="matrix(0.05,0,0,0.05,0,0)" xlink:href="#ag"/><use transform="matrix(0.05,0,0,0.05,12.950000000000001,0)" xlink:href="#P"/><use transform="matrix(0.05,0,0,0.05,22.950000000000003,0)" xlink:href="#Z"/><use transform="matrix(0.05,0,0,0.05,37.900000000000006,0)" xlink:href="#Z"/><use transform="matrix(0.05,0,0,0.05,52.85,0)" xlink:href="#V"/><use transform="matrix(0.05,0,0,0.05,62.85,0)" xlink:href="#S"/><use transform="matrix(0.05,0,0,0.05,72.85000000000001,0)" xlink:href="#ah"/></g><path d="M63-220v92h138v28H63V0H30v-248h175v28H63" id="ai"/><path d="M24-231v-30h32v30H24zM24 0v-190h32V0H24" id="aj"/><path d="M24 0v-261h32V0H24" id="ak"/><g id="i"><use transform="matrix(0.05,0,0,0.05,0,0)" xlink:href="#ai"/><use transform="matrix(0.05,0,0,0.05,10.950000000000001,0)" xlink:href="#aj"/><use transform="matrix(0.05,0,0,0.05,14.9,0)" xlink:href="#ak"/><use transform="matrix(0.05,0,0,0.05,18.85,0)" xlink:href="#ak"/></g><g id="j"><use transform="matrix(0.05,0,0,0.05,0,0)" xlink:href="#P"/><use transform="matrix(0.05,0,0,0.05,10,0)" xlink:href="#af"/><use transform="matrix(0.05,0,0,0.05,20,0)" xlink:href="#O"/></g><g id="k"><use transform="matrix(0.05,0,0,0.05,0,0)" xlink:href="#U"/><use transform="matrix(0.05,0,0,0.05,5,0)" xlink:href="#P"/><use transform="matrix(0.05,0,0,0.05,15,0)" xlink:href="#Q"/><use transform="matrix(0.05,0,0,0.05,20.95,0)" xlink:href="#Z"/></g><path d="M233-177c-1 41-23 64-60 70L243 0h-38l-65-103H63V0H30v-248c88 3 205-21 203 71zM63-129c60-2 137 13 137-47 0-61-80-42-137-45v92" id="al"/><g id="l"><use transform="matrix(0.05,0,0,0.05,0,0)" xlink:href="#al"/><use transform="matrix(0.05,0,0,0.05,12.950000000000001,0)" xlink:href="#T"/><use transform="matrix(0.05,0,0,0.05,22.950000000000003,0)" xlink:href="#O"/><use transform="matrix(0.05,0,0,0.05,27.950000000000003,0)" xlink:href="#af"/><use transform="matrix(0.05,0,0,0.05,37.95,0)" xlink:href="#Q"/><use transform="matrix(0.05,0,0,0.05,43.900000000000006,0)" xlink:href="#S"/></g><path d="M24-231v-30h32v30H24zM-9 49c24 4 33-6 33-30v-209h32V24c2 40-23 58-65 49V49" id="am"/><g id="m"><use transform="matrix(0.05,0,0,0.05,0,0)" xlink:href="#al"/><use transform="matrix(0.05,0,0,0.05,12.950000000000001,0)" xlink:href="#T"/><use transform="matrix(0.05,0,0,0.05,22.950000000000003,0)" xlink:href="#am"/><use transform="matrix(0.05,0,0,0.05,26.900000000000002,0)" xlink:href="#T"/><use transform="matrix(0.05,0,0,0.05,36.900000000000006,0)" xlink:href="#N"/><use transform="matrix(0.05,0,0,0.05,45.900000000000006,0)" xlink:href="#O"/><use transform="matrix(0.05,0,0,0.05,50.900000000000006,0)" xlink:href="#T"/><use transform="matrix(0.05,0,0,0.05,60.900000000000006,0)" xlink:href="#ah"/></g><path d="M108 0H70L1-190h34L89-25l56-165h34" id="an"/><g id="n"><use transform="matrix(0.05,0,0,0.05,0,0)" xlink:href="#R"/><use transform="matrix(0.05,0,0,0.05,5,0)" xlink:href="#S"/><use transform="matrix(0.05,0,0,0.05,15,0)" xlink:href="#an"/><use transform="matrix(0.05,0,0,0.05,24,0)" xlink:href="#V"/><use transform="matrix(0.05,0,0,0.05,34,0)" xlink:href="#ak"/><use transform="matrix(0.05,0,0,0.05,37.95,0)" xlink:href="#aj"/><use transform="matrix(0.05,0,0,0.05,41.900000000000006,0)" xlink:href="#ah"/></g><g id="o"><use transform="matrix(0.05,0,0,0.05,0,0)" xlink:href="#M"/><use transform="matrix(0.05,0,0,0.05,12,0)" xlink:href="#ak"/><use transform="matrix(0.05,0,0,0.05,15.949999999999998,0)" xlink:href="#O"/><use transform="matrix(0.05,0,0,0.05,20.95,0)" xlink:href="#T"/><use transform="matrix(0.05,0,0,0.05,30.950000000000003,0)" xlink:href="#Q"/><use transform="matrix(0.05,0,0,0.05,36.9,0)" xlink:href="#S"/><use transform="matrix(0.05,0,0,0.05,46.9,0)" xlink:href="#V"/><use transform="matrix(0.05,0,0,0.05,56.900000000000006,0)" xlink:href="#O"/><use transform="matrix(0.05,0,0,0.05,61.900000000000006,0)" xlink:href="#aj"/><use transform="matrix(0.05,0,0,0.05,65.85,0)" xlink:href="#an"/><use transform="matrix(0.05,0,0,0.05,74.85,0)" xlink:href="#T"/></g><path d="M26 75v-336h71v23H56V52h41v23H26" id="ao"/><path d="M137 0h-34L2-248h35l83 218 83-218h36" id="ap"/><g id="p"><use transform="matrix(0.05,0,0,0.05,0,0)" xlink:href="#ao"/><use transform="matrix(0.05,0,0,0.05,5,0)" xlink:href="#ap"/><use transform="matrix(0.05,0,0,0.05,15.65,0)" xlink:href="#V"/><use transform="matrix(0.05,0,0,0.05,25.649999999999995,0)" xlink:href="#ak"/><use transform="matrix(0.05,0,0,0.05,29.599999999999994,0)" xlink:href="#aj"/><use transform="matrix(0.05,0,0,0.05,33.55,0)" xlink:href="#ah"/></g><path d="M3 75V52h41v-290H3v-23h71V75H3" id="aq"/><g id="q"><use transform="matrix(0.05,0,0,0.05,0,0)" xlink:href="#ai"/><use transform="matrix(0.05,0,0,0.05,10.950000000000001,0)" xlink:href="#P"/><use transform="matrix(0.05,0,0,0.05,20.950000000000003,0)" xlink:href="#Q"/><use transform="matrix(0.05,0,0,0.05,26.900000000000002,0)" xlink:href="#Z"/><use transform="matrix(0.05,0,0,0.05,41.85,0)" xlink:href="#aq"/></g><g id="r"><use transform="matrix(0.05,0,0,0.05,0,0)" xlink:href="#ao"/><use transform="matrix(0.05,0,0,0.05,5,0)" xlink:href="#ac"/><use transform="matrix(0.05,0,0,0.05,17,0)" xlink:href="#ak"/><use transform="matrix(0.05,0,0,0.05,20.95,0)" xlink:href="#Y"/><use transform="matrix(0.05,0,0,0.05,29.950000000000003,0)" xlink:href="#T"/><use transform="matrix(0.05,0,0,0.05,39.95,0)" xlink:href="#aq"/></g><path d="M30-248c118-7 216 8 213 122C240-48 200 0 122 0H30v-248zM63-27c89 8 146-16 146-99s-60-101-146-95v194" id="ar"/><path d="M115-194c55 1 70 41 70 98S169 2 115 4C84 4 66-9 55-30l1 105H24l-1-265h31l2 30c10-21 28-34 59-34zm-8 174c40 0 45-34 45-75s-6-73-45-74c-42 0-51 32-51 76 0 43 10 73 51 73" id="as"/><g id="s"><use transform="matrix(0.05,0,0,0.05,0,0)" xlink:href="#ar"/><use transform="matrix(0.05,0,0,0.05,12.950000000000001,0)" xlink:href="#aj"/><use transform="matrix(0.05,0,0,0.05,16.900000000000002,0)" xlink:href="#Y"/><use transform="matrix(0.05,0,0,0.05,25.900000000000002,0)" xlink:href="#as"/><use transform="matrix(0.05,0,0,0.05,35.900000000000006,0)" xlink:href="#ak"/><use transform="matrix(0.05,0,0,0.05,39.85000000000001,0)" xlink:href="#V"/><use transform="matrix(0.05,0,0,0.05,49.85000000000001,0)" xlink:href="#X"/></g><g id="t"><use transform="matrix(0.05,0,0,0.05,0,0)" xlink:href="#ai"/><use transform="matrix(0.05,0,0,0.05,10.950000000000001,0)" xlink:href="#P"/><use transform="matrix(0.05,0,0,0.05,20.950000000000003,0)" xlink:href="#Q"/><use transform="matrix(0.05,0,0,0.05,26.900000000000002,0)" xlink:href="#Z"/></g><g id="u"><use transform="matrix(0.05,0,0,0.05,0,0)" xlink:href="#ac"/><use transform="matrix(0.05,0,0,0.05,12,0)" xlink:href="#Q"/><use transform="matrix(0.05,0,0,0.05,17.95,0)" xlink:href="#Q"/><use transform="matrix(0.05,0,0,0.05,23.9,0)" xlink:href="#P"/><use transform="matrix(0.05,0,0,0.05,33.9,0)" xlink:href="#Q"/></g><path d="M30 0v-248h33v221h125V0H30" id="at"/><g id="v"><use transform="matrix(0.05,0,0,0.05,0,0)" xlink:href="#at"/><use transform="matrix(0.05,0,0,0.05,10,0)" xlink:href="#P"/><use transform="matrix(0.05,0,0,0.05,20,0)" xlink:href="#P"/><use transform="matrix(0.05,0,0,0.05,30,0)" xlink:href="#as"/></g><path d="M145-31C134-9 116 4 85 4 32 4 16-35 15-94c0-59 17-99 70-100 32-1 48 14 60 33 0-11-1-24 2-32h30l-1 268h-32zM93-21c41 0 51-33 51-76s-8-73-50-73c-40 0-46 35-46 75s5 74 45 74" id="au"/><g id="w"><use transform="matrix(0.05,0,0,0.05,0,0)" xlink:href="#ao"/><use transform="matrix(0.05,0,0,0.05,5,0)" xlink:href="#al"/><use transform="matrix(0.05,0,0,0.05,17.950000000000003,0)" xlink:href="#T"/><use transform="matrix(0.05,0,0,0.05,27.950000000000003,0)" xlink:href="#au"/><use transform="matrix(0.05,0,0,0.05,37.95,0)" xlink:href="#af"/><use transform="matrix(0.05,0,0,0.05,47.95,0)" xlink:href="#T"/><use transform="matrix(0.05,0,0,0.05,57.95,0)" xlink:href="#Y"/><use transform="matrix(0.05,0,0,0.05,66.95,0)" xlink:href="#O"/><use transform="matrix(0.05,0,0,0.05,71.95,0)" xlink:href="#Y"/></g><g id="x"><use transform="matrix(0.05,0,0,0.05,0,0)" xlink:href="#ag"/><use transform="matrix(0.05,0,0,0.05,12.950000000000001,0)" xlink:href="#aa"/><use transform="matrix(0.05,0,0,0.05,22.950000000000003,0)" xlink:href="#V"/><use transform="matrix(0.05,0,0,0.05,32.95,0)" xlink:href="#S"/><use transform="matrix(0.05,0,0,0.05,42.95,0)" xlink:href="#ae"/><use transform="matrix(0.05,0,0,0.05,52.95,0)" xlink:href="#T"/><use transform="matrix(0.05,0,0,0.05,62.95,0)" xlink:href="#Y"/><use transform="matrix(0.05,0,0,0.05,71.95,0)" xlink:href="#aq"/></g><path d="M30-248c87 1 191-15 191 75 0 78-77 80-158 76V0H30v-248zm33 125c57 0 124 11 124-50 0-59-68-47-124-48v98" id="av"/><path d="M206 0h-36l-40-164L89 0H53L-1-190h32L70-26l43-164h34l41 164 42-164h31" id="aw"/><g id="y"><use transform="matrix(0.05,0,0,0.05,0,0)" xlink:href="#av"/><use transform="matrix(0.05,0,0,0.05,12,0)" xlink:href="#Q"/><use transform="matrix(0.05,0,0,0.05,17.95,0)" xlink:href="#T"/><use transform="matrix(0.05,0,0,0.05,27.950000000000003,0)" xlink:href="#an"/><use transform="matrix(0.05,0,0,0.05,36.95,0)" xlink:href="#aj"/><use transform="matrix(0.05,0,0,0.05,40.900000000000006,0)" xlink:href="#T"/><use transform="matrix(0.05,0,0,0.05,50.900000000000006,0)" xlink:href="#aw"/></g><path d="M140-251c81 0 123 46 123 126C263-46 219 4 140 4 59 4 17-45 17-125s42-126 123-126zm0 227c63 0 89-41 89-101s-29-99-89-99c-61 0-89 39-89 99S79-25 140-24" id="ax"/><g id="z"><use transform="matrix(0.05,0,0,0.05,0,0)" xlink:href="#ax"/><use transform="matrix(0.05,0,0,0.05,14,0)" xlink:href="#as"/><use transform="matrix(0.05,0,0,0.05,24,0)" xlink:href="#O"/></g><g id="A"><use transform="matrix(0.05,0,0,0.05,0,0)" xlink:href="#al"/><use transform="matrix(0.05,0,0,0.05,12.950000000000001,0)" xlink:href="#T"/><use transform="matrix(0.05,0,0,0.05,22.950000000000003,0)" xlink:href="#au"/><use transform="matrix(0.05,0,0,0.05,32.95,0)" xlink:href="#af"/><use transform="matrix(0.05,0,0,0.05,42.95,0)" xlink:href="#T"/><use transform="matrix(0.05,0,0,0.05,52.95,0)" xlink:href="#Y"/><use transform="matrix(0.05,0,0,0.05,61.95,0)" xlink:href="#O"/></g><g id="B"><use transform="matrix(0.05,0,0,0.05,0,0)" xlink:href="#ag"/><use transform="matrix(0.05,0,0,0.05,12.950000000000001,0)" xlink:href="#aa"/><use transform="matrix(0.05,0,0,0.05,22.950000000000003,0)" xlink:href="#V"/><use transform="matrix(0.05,0,0,0.05,32.95,0)" xlink:href="#S"/><use transform="matrix(0.05,0,0,0.05,42.95,0)" xlink:href="#ae"/><use transform="matrix(0.05,0,0,0.05,52.95,0)" xlink:href="#T"/><use transform="matrix(0.05,0,0,0.05,62.95,0)" xlink:href="#Y"/></g><path d="M115-194c53 0 69 39 70 98 0 66-23 100-70 100C84 3 66-7 56-30L54 0H23l1-261h32v101c10-23 28-34 59-34zm-8 174c40 0 45-34 45-75 0-40-5-75-45-74-42 0-51 32-51 76 0 43 10 73 51 73" id="ay"/><g id="C"><use transform="matrix(0.05,0,0,0.05,0,0)" xlink:href="#W"/><use transform="matrix(0.05,0,0,0.05,12,0)" xlink:href="#af"/><use transform="matrix(0.05,0,0,0.05,22,0)" xlink:href="#ay"/><use transform="matrix(0.05,0,0,0.05,32,0)" xlink:href="#Z"/><use transform="matrix(0.05,0,0,0.05,46.95,0)" xlink:href="#aj"/><use transform="matrix(0.05,0,0,0.05,50.900000000000006,0)" xlink:href="#O"/></g><g id="D"><use transform="matrix(0.05,0,0,0.05,0,0)" xlink:href="#ap"/><use transform="matrix(0.05,0,0,0.05,10.65,0)" xlink:href="#V"/><use transform="matrix(0.05,0,0,0.05,20.65,0)" xlink:href="#ak"/><use transform="matrix(0.05,0,0,0.05,24.599999999999998,0)" xlink:href="#aj"/><use transform="matrix(0.05,0,0,0.05,28.549999999999997,0)" xlink:href="#ah"/><use transform="matrix(0.05,0,0,0.05,38.55,0)" xlink:href="#V"/><use transform="matrix(0.05,0,0,0.05,48.55,0)" xlink:href="#O"/><use transform="matrix(0.05,0,0,0.05,53.54999999999999,0)" xlink:href="#T"/></g><g id="E"><use transform="matrix(0.05,0,0,0.05,0,0)" xlink:href="#ai"/><use transform="matrix(0.05,0,0,0.05,10.950000000000001,0)" xlink:href="#P"/><use transform="matrix(0.05,0,0,0.05,20.950000000000003,0)" xlink:href="#Q"/><use transform="matrix(0.05,0,0,0.05,26.900000000000002,0)" xlink:href="#aw"/><use transform="matrix(0.05,0,0,0.05,39.85,0)" xlink:href="#V"/><use transform="matrix(0.05,0,0,0.05,49.85,0)" xlink:href="#Q"/><use transform="matrix(0.05,0,0,0.05,55.800000000000004,0)" xlink:href="#ah"/></g><g id="F"><use transform="matrix(0.05,0,0,0.05,0,0)" xlink:href="#ag"/><use transform="matrix(0.05,0,0,0.05,12.950000000000001,0)" xlink:href="#P"/><use transform="matrix(0.05,0,0,0.05,22.950000000000003,0)" xlink:href="#S"/><use transform="matrix(0.05,0,0,0.05,32.95,0)" xlink:href="#U"/><use transform="matrix(0.05,0,0,0.05,37.95,0)" xlink:href="#aj"/><use transform="matrix(0.05,0,0,0.05,41.900000000000006,0)" xlink:href="#Q"/><use transform="matrix(0.05,0,0,0.05,47.85000000000001,0)" xlink:href="#Z"/></g><g id="G"><use transform="matrix(0.05,0,0,0.05,0,0)" xlink:href="#al"/><use transform="matrix(0.05,0,0,0.05,12.950000000000001,0)" xlink:href="#T"/><use transform="matrix(0.05,0,0,0.05,22.950000000000003,0)" xlink:href="#N"/><use transform="matrix(0.05,0,0,0.05,31.950000000000003,0)" xlink:href="#T"/><use transform="matrix(0.05,0,0,0.05,41.95,0)" xlink:href="#as"/><use transform="matrix(0.05,0,0,0.05,51.95,0)" xlink:href="#O"/><use transform="matrix(0.05,0,0,0.05,56.95,0)" xlink:href="#aj"/><use transform="matrix(0.05,0,0,0.05,60.900000000000006,0)" xlink:href="#P"/><use transform="matrix(0.05,0,0,0.05,70.9,0)" xlink:href="#S"/></g><g id="H"><use transform="matrix(0.05,0,0,0.05,0,0)" xlink:href="#at"/><use transform="matrix(0.05,0,0,0.05,10,0)" xlink:href="#P"/><use transform="matrix(0.05,0,0,0.05,20,0)" xlink:href="#V"/><use transform="matrix(0.05,0,0,0.05,30,0)" xlink:href="#ah"/><use transform="matrix(0.05,0,0,0.05,40,0)" xlink:href="#aj"/><use transform="matrix(0.05,0,0,0.05,43.95,0)" xlink:href="#S"/><use transform="matrix(0.05,0,0,0.05,53.95,0)" xlink:href="#ae"/></g><g id="I"><use transform="matrix(0.05,0,0,0.05,0,0)" xlink:href="#ao"/><use transform="matrix(0.05,0,0,0.05,5,0)" xlink:href="#M"/><use transform="matrix(0.05,0,0,0.05,17,0)" xlink:href="#as"/><use transform="matrix(0.05,0,0,0.05,27,0)" xlink:href="#as"/><use transform="matrix(0.05,0,0,0.05,37,0)" xlink:href="#Q"/><use transform="matrix(0.05,0,0,0.05,42.95,0)" xlink:href="#P"/><use transform="matrix(0.05,0,0,0.05,52.95,0)" xlink:href="#an"/><use transform="matrix(0.05,0,0,0.05,61.95,0)" xlink:href="#T"/><use transform="matrix(0.05,0,0,0.05,71.95,0)" xlink:href="#ah"/><use transform="matrix(0.05,0,0,0.05,81.95,0)" xlink:href="#aq"/></g><g id="J"><use transform="matrix(0.05,0,0,0.05,0,0)" xlink:href="#W"/><use transform="matrix(0.05,0,0,0.05,12,0)" xlink:href="#T"/><use transform="matrix(0.05,0,0,0.05,22,0)" xlink:href="#S"/><use transform="matrix(0.05,0,0,0.05,32,0)" xlink:href="#ah"/></g><g id="K"><use transform="matrix(0.05,0,0,0.05,0,0)" xlink:href="#al"/><use transform="matrix(0.05,0,0,0.05,12.950000000000001,0)" xlink:href="#T"/><use transform="matrix(0.05,0,0,0.05,22.950000000000003,0)" xlink:href="#Y"/><use transform="matrix(0.05,0,0,0.05,31.950000000000003,0)" xlink:href="#as"/><use transform="matrix(0.05,0,0,0.05,41.95,0)" xlink:href="#P"/><use transform="matrix(0.05,0,0,0.05,51.95,0)" xlink:href="#S"/><use transform="matrix(0.05,0,0,0.05,61.95,0)" xlink:href="#Y"/><use transform="matrix(0.05,0,0,0.05,70.95,0)" xlink:href="#T"/></g><g id="L"><use transform="matrix(0.05,0,0,0.05,0,0)" xlink:href="#al"/><use transform="matrix(0.05,0,0,0.05,12.950000000000001,0)" xlink:href="#T"/><use transform="matrix(0.05,0,0,0.05,22.950000000000003,0)" xlink:href="#as"/><use transform="matrix(0.05,0,0,0.05,32.95,0)" xlink:href="#P"/><use transform="matrix(0.05,0,0,0.05,42.95,0)" xlink:href="#Q"/><use transform="matrix(0.05,0,0,0.05,48.900000000000006,0)" xlink:href="#O"/></g></defs></g></svg>