<svg xmlns="http://www.w3.org/2000/svg" xmlns:xlink="http://www.w3.org/1999/xlink" xmlns:lucid="lucid" width="1760" height="1360"><g transform="translate(0 0)" lucid:page-tab-id="0_0"><path d="M270 128.13c0-2.77 2.24-5 5-5h1210c2.76 0 5 2.23 5 5v70c0 2.76-2.24 5-5 5H275c-2.76 0-5-2.24-5-5z" fill="#fff"/><path d="M270 163.13h1220v40H270z" fill="#fff"/><path d="M270 163.13h1220m-1220 40h1220m-860-40v660m440-660v660M1485 123.13c2.76 0 5 2.23 5 5v690c0 2.76-2.24 5-5 5H275c-2.76 0-5-2.24-5-5v-690c0-2.77 2.24-5 5-5z" stroke="#000" stroke-width="2" fill="none"/><use xlink:href="#a" transform="matrix(1,0,0,1,270,163.125) translate(84.5 23.6)"/><use xlink:href="#b" transform="matrix(1,0,0,1,630,163.125) translate(181.075 23.6)"/><use xlink:href="#c" transform="matrix(1,0,0,1,1070,163.125) translate(151.6 23.6)"/><path d="M731.38 270.9c-5.42 0-9.82 4.4-9.82 9.8v29.48c0 5.42 4.4 9.82 9.82 9.82h80.36c5.43 0 9.82-4.4 9.82-9.82V280.7c0-5.4-4.4-9.8-9.82-9.8z" stroke="#000" stroke-width="2" fill="#c7e8ac"/><use xlink:href="#d" transform="matrix(1,0,0,1,729.5625,278.89002596144564) translate(13 14.4)"/><use xlink:href="#e" transform="matrix(1,0,0,1,729.5625,278.89002596144564) translate(61 14.4)"/><use xlink:href="#f" transform="matrix(1,0,0,1,729.5625,278.89002596144564) translate(2.549999999999997 36)"/><path d="M481.1 744.67c-6.14 0-11.1 4.97-11.1 11.1v33.26c0 6.13 4.96 11.1 11.1 11.1h77.8c6.14 0 11.1-4.97 11.1-11.1v-33.27c0-6.12-4.96-11.1-11.1-11.1z" stroke="#000" stroke-width="2" fill="#e5e5e5"/><use xlink:href="#g" transform="matrix(1,0,0,1,478,752.6749935297994) translate(10.599999999999994 23.6)"/><path d="M791.56 215.45c0 8.53-8.95 15.44-20 15.44-11.04 0-20-6.92-20-15.45 0-8.54 8.96-15.45 20-15.45 11.05 0 20 6.9 20 15.45z" stroke="#000" stroke-width="2"/><path d="M771.08 251.4l-.5-18.63" stroke="#000" stroke-width="2" fill="none"/><path d="M771.48 266.66l-5-14.14 9.26-.25z" stroke="#000" stroke-width="2"/><path d="M771.52 231.9h.05l.02.87-2 .06-.04-1.18z"/><path d="M1180 270.9c-5.52 0-10 4.47-10 10v30c0 5.5 4.48 10 10 10h60c5.52 0 10-4.5 10-10v-30c0-5.53-4.48-10-10-10z" stroke="#000" stroke-width="2" fill="#ffdf71"/><use xlink:href="#h" transform="matrix(1,0,0,1,1178,278.89002596144564) translate(2.5749999999999957 14.4)"/><use xlink:href="#i" transform="matrix(1,0,0,1,1178,278.89002596144564) translate(6.550000000000001 36)"/><use xlink:href="#j" transform="matrix(1,0,0,1,1178,278.89002596144564) translate(21.55 36)"/><path d="M743.76 360c-6.74 0-12.2 5.46-12.2 12.2v36.6c0 6.74 5.46 12.2 12.2 12.2h55.6c6.74 0 12.2-5.46 12.2-12.2v-36.6c0-6.74-5.46-12.2-12.2-12.2z" stroke="#000" stroke-width="2" fill="#c7e8ac"/><use xlink:href="#k" transform="matrix(1,0,0,1,739.5625,368) translate(5.600000000000001 15.299999999999999)"/><use xlink:href="#l" transform="matrix(1,0,0,1,739.5625,368) translate(33.400000000000006 15.299999999999999)"/><use xlink:href="#j" transform="matrix(1,0,0,1,739.5625,368) translate(14.05 36.9)"/><path d="M742.02 740c-6.64 0-12.02 5.38-12.02 12.02v36.08c0 6.64 5.38 12.02 12.02 12.02h55.96c6.64 0 12.02-5.38 12.02-12.02v-36.08c0-6.64-5.38-12.02-12.02-12.02z" stroke="#000" stroke-width="2" fill="#c7e8ac"/><use xlink:href="#m" transform="matrix(1,0,0,1,738,748) translate(4.049999999999997 26.1)"/><path d="M1210 322.9v12.55c0 2.76-2.24 5-5 5H771.62c-.03 0-.06.02-.06.05" stroke="#000" stroke-width="2" fill="none"/><path d="M1211 322.92h-2v-1.03h2z"/><path d="M771.56 355.76l-4.63-14.26h9.27z" stroke="#000" stroke-width="2"/><path d="M767.44 547.08c2.28-1.56 5.97-1.56 8.25 0l70.18 48.12c2.27 1.57 2.27 4.1 0 5.66l-70.2 48.12c-2.27 1.56-5.96 1.56-8.24 0l-70.2-48.12c-2.27-1.56-2.27-4.1 0-5.66z" stroke="#000" stroke-width="2" fill="#f5b5c8"/><use xlink:href="#n" transform="matrix(1,0,0,1,693.125,544.2573106744256) translate(45.029999999999994 45.410000000000004)"/><use xlink:href="#o" transform="matrix(1,0,0,1,693.125,544.2573106744256) translate(44.505 67.01)"/><path d="M823.56 295.9h326.94" stroke="#000" stroke-width="2" fill="none"/><path d="M823.6 296.9h-1.04v-2h1.03z"/><path d="M1165.76 295.9l-14.26 4.63v-9.28z" stroke="#000" stroke-width="2"/><path d="M922 568.03c-6.63 0-12 5.37-12 12v36c0 6.63 5.37 12 12 12h76c6.63 0 12-5.37 12-12v-36c0-6.63-5.37-12-12-12z" stroke="#000" stroke-width="2" fill="#c7e8ac"/><use xlink:href="#p" transform="matrix(1,0,0,1,918,576.0307944545306) translate(10.074999999999996 25.6)"/><path d="M728 770.06H589.5" stroke="#000" stroke-width="2" fill="none"/><path d="M729 771.06h-1.03v-2H729z"/><path d="M574.24 770.06l14.26-4.64v9.28z" stroke="#000" stroke-width="2"/><path d="M515.75 368.86c2.35-1.46 6.15-1.46 8.5 0l57.44 35.72c2.34 1.46 2.34 3.82 0 5.28l-57.45 35.72c-2.35 1.46-6.15 1.46-8.5 0l-57.44-35.72c-2.34-1.46-2.34-3.82 0-5.28z" stroke="#000" stroke-width="2" fill="#f5b5c8"/><use xlink:href="#q" transform="matrix(1,0,0,1,454.0625,366.2222654600155) translate(36.58 45.15)"/><path d="M520 742.67V466.15" stroke="#000" stroke-width="2" fill="none"/><path d="M521 743.67h-2v-1.02h2z"/><path d="M520 450.9l4.64 14.25h-9.28z" stroke="#000" stroke-width="2"/><path d="M521 365.8h-2v-45.66h2zm0-67.26h-2V270.4h2z"/><path d="M521 366.88l-1.3-.1-.7.1v-1.1h2zM524.64 269.4h-9.28l4.64-14.27z"/><path d="M526 270.4h-12l6-18.5zm-9.26-2h6.52L520 258.35z"/><use xlink:href="#r" transform="matrix(1,0,0,1,486.525,298.54115467781025) translate(0 14.4)"/><path d="M454.76 407.22H349.5" stroke="#000" stroke-width="2" fill="none"/><path d="M455.6 408.2v.02h-.87v-2h1.2z"/><path d="M334.24 407.22l14.26-4.63v9.26z" stroke="#000" stroke-width="2"/><use xlink:href="#s" transform="matrix(1,0,0,1,393.6832809978851,381.6211067685621) translate(0 14.4)"/><path d="M540 230.9c0 11.04-8.95 20-20 20s-20-8.96-20-20c0-11.06 8.95-20 20-20s20 8.94 20 20z" stroke="#000" stroke-width="2" fill="#fff"/><path d="M532 230.9c0 6.62-5.37 12-12 12s-12-5.38-12-12c0-6.64 5.37-12 12-12s12 5.36 12 12z" stroke="#000" stroke-width="2"/><path d="M732.06 216.45h-56.9l-2.5.8-1.46 2-.2 1.28v408.54l-1.1 3.4-2.92 2.13-1.9.3H521v-2h143.92l1.26-.2 2-1.46.82-2.5V220.37l.3-1.9 2.13-2.9 3.4-1.1h57.23zM747.33 215.45l-14.27 4.63v-9.27z"/><path d="M750.56 215.45l-18.5 6v-12.02zm-16.5 3.25l10.03-3.25-10.04-3.26zM521.03 634.9H520v-2h1.03z"/><path d="M330 407.22c0 11.05-8.95 20-20 20s-20-8.95-20-20c0-11.04 8.95-20 20-20s20 8.96 20 20z" stroke="#000" stroke-width="2" fill="#fff"/><path d="M295.86 393.08l28.28 28.3m0-28.3l-28.28 28.3" stroke="#000" stroke-width="2" fill="none"/><path d="M771.45 720.5h-2l.13-14.66h2zm.62-68.4l-.3 32.14h-2l.3-32.17z"/><path d="M771.7 651.16l.38-.06v1.02l-2-.02v-1.13zM775.08 721.54l-4.77 14.22-4.5-14.3z"/><path d="M776.46 720.55L770.28 739l-5.84-18.56zm-6.12 11.98l3.35-10-6.53-.06z"/><use xlink:href="#t" transform="matrix(1,0,0,1,759.2063711157683,684.2419335302652) translate(0 14.4)"/><path d="M772.56 543.92h-2v-49.66h2zm0-71.26h-2V440.5h2z"/><path d="M772.56 545.04l-1.15-.13-.84.13v-1.13h2zM776.2 439.5h-9.27l4.63-14.27z"/><path d="M777.57 440.5h-12.02l6-18.5zm-9.27-2h6.52l-3.26-10.03z"/><use xlink:href="#u" transform="matrix(1,0,0,1,756.8875,472.6610930290314) translate(0 14.4)"/><path d="M1415.8 430.76c2.32-1.5 6.08-1.5 8.4 0l61.6 39.66c2.32 1.5 2.32 3.92 0 5.4l-61.6 39.67c-2.32 1.48-6.08 1.48-8.4 0l-61.6-39.67c-2.32-1.5-2.32-3.92 0-5.4z" stroke="#000" stroke-width="2" fill="#f9d2de"/><use xlink:href="#v" transform="matrix(1,0,0,1,1350,428.0581887501482) translate(50.73 37.15)"/><use xlink:href="#w" transform="matrix(1,0,0,1,1350,428.0581887501482) translate(46.08 58.75)"/><path d="M1420 410.16V395.5c0-2.76-2.24-5-5-5H813.56" stroke="#000" stroke-width="2" fill="none"/><path d="M1420 425.43l-4.64-14.27h9.28z" stroke="#000" stroke-width="2"/><path d="M813.6 391.5h-1.04v-2h1.03z"/><path d="M908 598.03h-41.12" stroke="#000" stroke-width="2" fill="none"/><path d="M909 599.03h-1.03v-2H909z"/><path d="M851.62 598.03l14.26-4.63v9.27z" stroke="#000" stroke-width="2"/><path d="M1241.05 599.03H1029.5v-2h211.55zM1421 593.2l-1.1 3.4-2.92 2.12-1.9.3H1270.4v-2h144.52l1.26-.2 2-1.45.82-2.5V518.6h2zM1420.25 517.6l.75-.1v1.1h-2v-1.1zM1028.5 602.67l-14.26-4.64 14.26-4.63z"/><path d="M1029.5 604.04l-18.5-6 18.5-6.02zm-12.03-6l10.03 3.25v-6.53z"/><use xlink:href="#u" transform="matrix(1,0,0,1,1241.0467867395464,587.2307944545306) translate(0 14.4)"/><path d="M1120.75 446.25c-5.94 0-10.75 4.8-10.75 10.75v32.25c0 5.94 4.8 10.75 10.75 10.75h78.5c5.94 0 10.75-4.8 10.75-10.75V457c0-5.94-4.8-10.75-10.75-10.75z" stroke="#000" stroke-width="2" fill="#ffdf71"/><use xlink:href="#h" transform="matrix(1,0,0,1,1118,454.25) translate(12.574999999999996 14.4)"/><use xlink:href="#x" transform="matrix(1,0,0,1,1118,454.25) translate(22.075 36)"/><path d="M1269.86 474.13h-40.36v-2h40.36zm80.8 0h-57.85v-2h57.87z"/><path d="M1351.54 474.13h-.9v-2h1.16zM1228.5 477.76l-14.26-4.63 14.26-4.64z"/><path d="M1229.5 479.14l-18.5-6 18.5-6.03zm-12.03-6l10.03 3.24v-6.5z"/><g><use xlink:href="#t" transform="matrix(1,0,0,1,1269.8611527100375,462.325) translate(0 14.4)"/></g><path d="M957.76 408.17l2.9 2.12 1.12 3.4v54.34l.2 1.27 1.47 2 2.5.82H1108v2H965.62l-3.4-1.1-2.13-2.92-.32-1.9v-54.18l-.8-2.5-2-1.45-1.28-.2H831.06v-2h124.8z"/><path d="M1109 474.13h-1.03v-2h1.03zM830.06 413.5l-14.26-4.64 14.26-4.63z"/><path d="M831.06 414.88l-18.5-6.02 18.5-6zm-12.03-6.02l10.03 3.26v-6.5z"/><defs><path d="M205 0l-28-72H64L36 0H1l101-248h38L239 0h-34zm-38-99l-47-123c-12 45-31 82-46 123h93" id="y"/><path d="M59-47c-2 24 18 29 38 22v24C64 9 27 4 27-40v-127H5v-23h24l9-43h21v43h35v23H59v120" id="z"/><path d="M106-169C34-169 62-67 57 0H25v-261h32l-1 103c12-21 28-36 61-36 89 0 53 116 60 194h-32v-121c2-32-8-49-39-48" id="A"/><path d="M100-194c63 0 86 42 84 106H49c0 40 14 67 53 68 26 1 43-12 49-29l28 8c-11 28-37 45-77 45C44 4 14-33 15-96c1-61 26-98 85-98zm52 81c6-60-76-77-97-28-3 7-6 17-6 28h103" id="B"/><path d="M117-194c89-4 53 116 60 194h-32v-121c0-31-8-49-39-48C34-167 62-67 57 0H25l-1-190h30c1 10-1 24 2 32 11-22 29-35 61-36" id="C"/><path d="M135-143c-3-34-86-38-87 0 15 53 115 12 119 90S17 21 10-45l28-5c4 36 97 45 98 0-10-56-113-15-118-90-4-57 82-63 122-42 12 7 21 19 24 35" id="D"/><path d="M33 0v-38h34V0H33" id="E"/><path d="M185-189c-5-48-123-54-124 2 14 75 158 14 163 119 3 78-121 87-175 55-17-10-28-26-33-46l33-7c5 56 141 63 141-1 0-78-155-14-162-118-5-82 145-84 179-34 5 7 8 16 11 25" id="F"/><path d="M100-194c62-1 85 37 85 99 1 63-27 99-86 99S16-35 15-95c0-66 28-99 85-99zM99-20c44 1 53-31 53-75 0-43-8-75-51-75s-53 32-53 75 10 74 51 75" id="G"/><path d="M96-169c-40 0-48 33-48 73s9 75 48 75c24 0 41-14 43-38l32 2c-6 37-31 61-74 61-59 0-76-41-82-99-10-93 101-131 147-64 4 7 5 14 7 22l-32 3c-4-21-16-35-41-35" id="H"/><path d="M143 0L79-87 56-68V0H24v-261h32v163l83-92h37l-77 82L181 0h-38" id="I"/><path d="M30 0v-248h187v28H63v79h144v27H63v87h162V0H30" id="J"/><path d="M141 0L90-78 38 0H4l68-98-65-92h35l48 74 47-74h35l-64 92 68 98h-35" id="K"/><path d="M141-36C126-15 110 5 73 4 37 3 15-17 15-53c-1-64 63-63 125-63 3-35-9-54-41-54-24 1-41 7-42 31l-33-3c5-37 33-52 76-52 45 0 72 20 72 64v82c-1 20 7 32 28 27v20c-31 9-61-2-59-35zM48-53c0 20 12 33 32 33 41-3 63-29 60-74-43 2-92-5-92 41" id="L"/><path d="M177-190C167-65 218 103 67 71c-23-6-38-20-44-43l32-5c15 47 100 32 89-28v-30C133-14 115 1 83 1 29 1 15-40 15-95c0-56 16-97 71-98 29-1 48 16 59 35 1-10 0-23 2-32h30zM94-22c36 0 50-32 50-73 0-42-14-75-50-75-39 0-46 34-46 75s6 73 46 73" id="M"/><g id="a"><use transform="matrix(0.05,0,0,0.05,0,0)" xlink:href="#y"/><use transform="matrix(0.05,0,0,0.05,12,0)" xlink:href="#z"/><use transform="matrix(0.05,0,0,0.05,17,0)" xlink:href="#A"/><use transform="matrix(0.05,0,0,0.05,27,0)" xlink:href="#B"/><use transform="matrix(0.05,0,0,0.05,37,0)" xlink:href="#C"/><use transform="matrix(0.05,0,0,0.05,47,0)" xlink:href="#D"/><use transform="matrix(0.05,0,0,0.05,56,0)" xlink:href="#E"/><use transform="matrix(0.05,0,0,0.05,61,0)" xlink:href="#F"/><use transform="matrix(0.05,0,0,0.05,73,0)" xlink:href="#z"/><use transform="matrix(0.05,0,0,0.05,78,0)" xlink:href="#G"/><use transform="matrix(0.05,0,0,0.05,88,0)" xlink:href="#H"/><use transform="matrix(0.05,0,0,0.05,97,0)" xlink:href="#I"/><use transform="matrix(0.05,0,0,0.05,106,0)" xlink:href="#E"/><use transform="matrix(0.05,0,0,0.05,111,0)" xlink:href="#J"/><use transform="matrix(0.05,0,0,0.05,123,0)" xlink:href="#K"/><use transform="matrix(0.05,0,0,0.05,132,0)" xlink:href="#H"/><use transform="matrix(0.05,0,0,0.05,141,0)" xlink:href="#A"/><use transform="matrix(0.05,0,0,0.05,151,0)" xlink:href="#L"/><use transform="matrix(0.05,0,0,0.05,161,0)" xlink:href="#C"/><use transform="matrix(0.05,0,0,0.05,171,0)" xlink:href="#M"/><use transform="matrix(0.05,0,0,0.05,181,0)" xlink:href="#B"/></g><path d="M212-179c-10-28-35-45-73-45-59 0-87 40-87 99 0 60 29 101 89 101 43 0 62-24 78-52l27 14C228-24 195 4 139 4 59 4 22-46 18-125c-6-104 99-153 187-111 19 9 31 26 39 46" id="N"/><path d="M84 4C-5 8 30-112 23-190h32v120c0 31 7 50 39 49 72-2 45-101 50-169h31l1 190h-30c-1-10 1-25-2-33-11 22-28 36-60 37" id="O"/><path d="M210-169c-67 3-38 105-44 169h-31v-121c0-29-5-50-35-48C34-165 62-65 56 0H25l-1-190h30c1 10-1 24 2 32 10-44 99-50 107 0 11-21 27-35 58-36 85-2 47 119 55 194h-31v-121c0-29-5-49-35-48" id="P"/><path d="M114-163C36-179 61-72 57 0H25l-1-190h30c1 12-1 29 2 39 6-27 23-49 58-41v29" id="Q"/><g id="b"><use transform="matrix(0.05,0,0,0.05,0,0)" xlink:href="#N"/><use transform="matrix(0.05,0,0,0.05,12.950000000000001,0)" xlink:href="#O"/><use transform="matrix(0.05,0,0,0.05,22.950000000000003,0)" xlink:href="#D"/><use transform="matrix(0.05,0,0,0.05,31.950000000000003,0)" xlink:href="#z"/><use transform="matrix(0.05,0,0,0.05,36.95,0)" xlink:href="#G"/><use transform="matrix(0.05,0,0,0.05,46.95,0)" xlink:href="#P"/><use transform="matrix(0.05,0,0,0.05,61.900000000000006,0)" xlink:href="#B"/><use transform="matrix(0.05,0,0,0.05,71.9,0)" xlink:href="#Q"/></g><path d="M63-220v92h138v28H63V0H30v-248h175v28H63" id="R"/><path d="M33 0v-248h34V0H33" id="S"/><path d="M101-234c-31-9-42 10-38 44h38v23H63V0H32v-167H5v-23h27c-7-52 17-82 69-68v24" id="T"/><g id="c"><use transform="matrix(0.05,0,0,0.05,0,0)" xlink:href="#R"/><use transform="matrix(0.05,0,0,0.05,10.950000000000001,0)" xlink:href="#G"/><use transform="matrix(0.05,0,0,0.05,20.950000000000003,0)" xlink:href="#Q"/><use transform="matrix(0.05,0,0,0.05,26.900000000000002,0)" xlink:href="#P"/><use transform="matrix(0.05,0,0,0.05,41.85,0)" xlink:href="#E"/><use transform="matrix(0.05,0,0,0.05,46.85,0)" xlink:href="#S"/><use transform="matrix(0.05,0,0,0.05,51.85,0)" xlink:href="#C"/><use transform="matrix(0.05,0,0,0.05,61.85,0)" xlink:href="#z"/><use transform="matrix(0.05,0,0,0.05,66.85,0)" xlink:href="#B"/><use transform="matrix(0.05,0,0,0.05,76.85,0)" xlink:href="#Q"/><use transform="matrix(0.05,0,0,0.05,82.8,0)" xlink:href="#T"/><use transform="matrix(0.05,0,0,0.05,87.8,0)" xlink:href="#L"/><use transform="matrix(0.05,0,0,0.05,97.8,0)" xlink:href="#H"/><use transform="matrix(0.05,0,0,0.05,106.80000000000001,0)" xlink:href="#B"/></g><g id="d"><use transform="matrix(0.05,0,0,0.05,0,0)" xlink:href="#S"/><use transform="matrix(0.05,0,0,0.05,5,0)" xlink:href="#D"/><use transform="matrix(0.05,0,0,0.05,14,0)" xlink:href="#D"/><use transform="matrix(0.05,0,0,0.05,23,0)" xlink:href="#O"/><use transform="matrix(0.05,0,0,0.05,33,0)" xlink:href="#B"/></g><use transform="matrix(0.05,0,0,0.05,0,0)" xlink:href="#L" id="e"/><path d="M85-194c31 0 48 13 60 33l-1-100h32l1 261h-30c-2-10 0-23-3-31C134-8 116 4 85 4 32 4 16-35 15-94c0-66 23-100 70-100zm9 24c-40 0-46 34-46 75 0 40 6 74 45 74 42 0 51-32 51-76 0-42-9-74-50-73" id="U"/><g id="f"><use transform="matrix(0.05,0,0,0.05,0,0)" xlink:href="#H"/><use transform="matrix(0.05,0,0,0.05,9,0)" xlink:href="#G"/><use transform="matrix(0.05,0,0,0.05,19,0)" xlink:href="#P"/><use transform="matrix(0.05,0,0,0.05,33.95,0)" xlink:href="#P"/><use transform="matrix(0.05,0,0,0.05,48.900000000000006,0)" xlink:href="#L"/><use transform="matrix(0.05,0,0,0.05,58.900000000000006,0)" xlink:href="#C"/><use transform="matrix(0.05,0,0,0.05,68.9,0)" xlink:href="#U"/></g><path d="M24-231v-30h32v30H24zM24 0v-190h32V0H24" id="V"/><g id="g"><use transform="matrix(0.05,0,0,0.05,0,0)" xlink:href="#N"/><use transform="matrix(0.05,0,0,0.05,12.950000000000001,0)" xlink:href="#G"/><use transform="matrix(0.05,0,0,0.05,22.950000000000003,0)" xlink:href="#C"/><use transform="matrix(0.05,0,0,0.05,32.95,0)" xlink:href="#T"/><use transform="matrix(0.05,0,0,0.05,37.95,0)" xlink:href="#V"/><use transform="matrix(0.05,0,0,0.05,41.900000000000006,0)" xlink:href="#Q"/><use transform="matrix(0.05,0,0,0.05,47.85000000000001,0)" xlink:href="#P"/></g><path d="M30-248c118-7 216 8 213 122C240-48 200 0 122 0H30v-248zM63-27c89 8 146-16 146-99s-60-101-146-95v194" id="W"/><path d="M115-194c55 1 70 41 70 98S169 2 115 4C84 4 66-9 55-30l1 105H24l-1-265h31l2 30c10-21 28-34 59-34zm-8 174c40 0 45-34 45-75s-6-73-45-74c-42 0-51 32-51 76 0 43 10 73 51 73" id="X"/><path d="M24 0v-261h32V0H24" id="Y"/><path d="M179-190L93 31C79 59 56 82 12 73V49c39 6 53-20 64-50L1-190h34L92-34l54-156h33" id="Z"/><g id="h"><use transform="matrix(0.05,0,0,0.05,0,0)" xlink:href="#W"/><use transform="matrix(0.05,0,0,0.05,12.950000000000001,0)" xlink:href="#V"/><use transform="matrix(0.05,0,0,0.05,16.900000000000002,0)" xlink:href="#D"/><use transform="matrix(0.05,0,0,0.05,25.900000000000002,0)" xlink:href="#X"/><use transform="matrix(0.05,0,0,0.05,35.900000000000006,0)" xlink:href="#Y"/><use transform="matrix(0.05,0,0,0.05,39.85000000000001,0)" xlink:href="#L"/><use transform="matrix(0.05,0,0,0.05,49.85000000000001,0)" xlink:href="#Z"/></g><use transform="matrix(0.05,0,0,0.05,0,0)" xlink:href="#L" id="i"/><g id="j"><use transform="matrix(0.05,0,0,0.05,0,0)" xlink:href="#T"/><use transform="matrix(0.05,0,0,0.05,5,0)" xlink:href="#G"/><use transform="matrix(0.05,0,0,0.05,15,0)" xlink:href="#Q"/><use transform="matrix(0.05,0,0,0.05,20.95,0)" xlink:href="#P"/></g><g id="k"><use transform="matrix(0.05,0,0,0.05,0,0)" xlink:href="#R"/><use transform="matrix(0.05,0,0,0.05,10.950000000000001,0)" xlink:href="#V"/><use transform="matrix(0.05,0,0,0.05,14.9,0)" xlink:href="#Y"/><use transform="matrix(0.05,0,0,0.05,18.85,0)" xlink:href="#Y"/></g><g id="l"><use transform="matrix(0.05,0,0,0.05,0,0)" xlink:href="#G"/><use transform="matrix(0.05,0,0,0.05,10,0)" xlink:href="#O"/><use transform="matrix(0.05,0,0,0.05,20,0)" xlink:href="#z"/></g><path d="M115-194c53 0 69 39 70 98 0 66-23 100-70 100C84 3 66-7 56-30L54 0H23l1-261h32v101c10-23 28-34 59-34zm-8 174c40 0 45-34 45-75 0-40-5-75-45-74-42 0-51 32-51 76 0 43 10 73 51 73" id="aa"/><g id="m"><use transform="matrix(0.05,0,0,0.05,0,0)" xlink:href="#F"/><use transform="matrix(0.05,0,0,0.05,12,0)" xlink:href="#O"/><use transform="matrix(0.05,0,0,0.05,22,0)" xlink:href="#aa"/><use transform="matrix(0.05,0,0,0.05,32,0)" xlink:href="#P"/><use transform="matrix(0.05,0,0,0.05,46.95,0)" xlink:href="#V"/><use transform="matrix(0.05,0,0,0.05,50.900000000000006,0)" xlink:href="#z"/></g><path d="M233-177c-1 41-23 64-60 70L243 0h-38l-65-103H63V0H30v-248c88 3 205-21 203 71zM63-129c60-2 137 13 137-47 0-61-80-42-137-45v92" id="ab"/><path d="M145-31C134-9 116 4 85 4 32 4 16-35 15-94c0-59 17-99 70-100 32-1 48 14 60 33 0-11-1-24 2-32h30l-1 268h-32zM93-21c41 0 51-33 51-76s-8-73-50-73c-40 0-46 35-46 75s5 74 45 74" id="ac"/><g id="n"><use transform="matrix(0.05,0,0,0.05,0,0)" xlink:href="#ab"/><use transform="matrix(0.05,0,0,0.05,12.950000000000001,0)" xlink:href="#B"/><use transform="matrix(0.05,0,0,0.05,22.950000000000003,0)" xlink:href="#ac"/><use transform="matrix(0.05,0,0,0.05,32.95,0)" xlink:href="#O"/><use transform="matrix(0.05,0,0,0.05,42.95,0)" xlink:href="#B"/><use transform="matrix(0.05,0,0,0.05,52.95,0)" xlink:href="#D"/><use transform="matrix(0.05,0,0,0.05,61.95,0)" xlink:href="#z"/></g><g id="o"><use transform="matrix(0.05,0,0,0.05,0,0)" xlink:href="#H"/><use transform="matrix(0.05,0,0,0.05,9,0)" xlink:href="#A"/><use transform="matrix(0.05,0,0,0.05,19,0)" xlink:href="#L"/><use transform="matrix(0.05,0,0,0.05,29,0)" xlink:href="#C"/><use transform="matrix(0.05,0,0,0.05,39,0)" xlink:href="#M"/><use transform="matrix(0.05,0,0,0.05,49,0)" xlink:href="#B"/><use transform="matrix(0.05,0,0,0.05,59,0)" xlink:href="#D"/></g><path d="M30-248c87 1 191-15 191 75 0 78-77 80-158 76V0H30v-248zm33 125c57 0 124 11 124-50 0-59-68-47-124-48v98" id="ad"/><path d="M108 0H70L1-190h34L89-25l56-165h34" id="ae"/><path d="M206 0h-36l-40-164L89 0H53L-1-190h32L70-26l43-164h34l41 164 42-164h31" id="af"/><g id="p"><use transform="matrix(0.05,0,0,0.05,0,0)" xlink:href="#ad"/><use transform="matrix(0.05,0,0,0.05,12,0)" xlink:href="#Q"/><use transform="matrix(0.05,0,0,0.05,17.95,0)" xlink:href="#B"/><use transform="matrix(0.05,0,0,0.05,27.950000000000003,0)" xlink:href="#ae"/><use transform="matrix(0.05,0,0,0.05,36.95,0)" xlink:href="#V"/><use transform="matrix(0.05,0,0,0.05,40.900000000000006,0)" xlink:href="#B"/><use transform="matrix(0.05,0,0,0.05,50.900000000000006,0)" xlink:href="#af"/></g><g id="q"><use transform="matrix(0.05,0,0,0.05,0,0)" xlink:href="#ab"/><use transform="matrix(0.05,0,0,0.05,12.950000000000001,0)" xlink:href="#B"/><use transform="matrix(0.05,0,0,0.05,22.950000000000003,0)" xlink:href="#ae"/><use transform="matrix(0.05,0,0,0.05,31.950000000000003,0)" xlink:href="#V"/><use transform="matrix(0.05,0,0,0.05,35.900000000000006,0)" xlink:href="#B"/><use transform="matrix(0.05,0,0,0.05,45.900000000000006,0)" xlink:href="#af"/></g><g id="r"><use transform="matrix(0.05,0,0,0.05,0,0)" xlink:href="#y"/><use transform="matrix(0.05,0,0,0.05,12,0)" xlink:href="#X"/><use transform="matrix(0.05,0,0,0.05,22,0)" xlink:href="#X"/><use transform="matrix(0.05,0,0,0.05,32,0)" xlink:href="#Q"/><use transform="matrix(0.05,0,0,0.05,37.95,0)" xlink:href="#G"/><use transform="matrix(0.05,0,0,0.05,47.95,0)" xlink:href="#ae"/><use transform="matrix(0.05,0,0,0.05,56.95,0)" xlink:href="#B"/></g><path d="M24-231v-30h32v30H24zM-9 49c24 4 33-6 33-30v-209h32V24c2 40-23 58-65 49V49" id="ag"/><g id="s"><use transform="matrix(0.05,0,0,0.05,0,0)" xlink:href="#ab"/><use transform="matrix(0.05,0,0,0.05,12.950000000000001,0)" xlink:href="#B"/><use transform="matrix(0.05,0,0,0.05,22.950000000000003,0)" xlink:href="#ag"/><use transform="matrix(0.05,0,0,0.05,26.900000000000002,0)" xlink:href="#B"/><use transform="matrix(0.05,0,0,0.05,36.900000000000006,0)" xlink:href="#H"/><use transform="matrix(0.05,0,0,0.05,45.900000000000006,0)" xlink:href="#z"/></g><path d="M190 0L58-211 59 0H30v-248h39L202-35l-2-213h31V0h-41" id="ah"/><g id="t"><use transform="matrix(0.05,0,0,0.05,0,0)" xlink:href="#ah"/><use transform="matrix(0.05,0,0,0.05,12.950000000000001,0)" xlink:href="#G"/></g><path d="M137-103V0h-34v-103L8-248h37l75 118 75-118h37" id="ai"/><g id="u"><use transform="matrix(0.05,0,0,0.05,0,0)" xlink:href="#ai"/><use transform="matrix(0.05,0,0,0.05,10.35,0)" xlink:href="#B"/><use transform="matrix(0.05,0,0,0.05,20.35,0)" xlink:href="#D"/></g><path d="M137 0h-34L2-248h35l83 218 83-218h36" id="aj"/><g id="v"><use transform="matrix(0.05,0,0,0.05,0,0)" xlink:href="#aj"/><use transform="matrix(0.05,0,0,0.05,10.65,0)" xlink:href="#L"/><use transform="matrix(0.05,0,0,0.05,20.65,0)" xlink:href="#Y"/><use transform="matrix(0.05,0,0,0.05,24.599999999999998,0)" xlink:href="#V"/><use transform="matrix(0.05,0,0,0.05,28.549999999999997,0)" xlink:href="#U"/></g><g id="w"><use transform="matrix(0.05,0,0,0.05,0,0)" xlink:href="#R"/><use transform="matrix(0.05,0,0,0.05,10.950000000000001,0)" xlink:href="#V"/><use transform="matrix(0.05,0,0,0.05,14.9,0)" xlink:href="#B"/><use transform="matrix(0.05,0,0,0.05,24.900000000000002,0)" xlink:href="#Y"/><use transform="matrix(0.05,0,0,0.05,28.85,0)" xlink:href="#U"/><use transform="matrix(0.05,0,0,0.05,38.85,0)" xlink:href="#D"/></g><g id="x"><use transform="matrix(0.05,0,0,0.05,0,0)" xlink:href="#J"/><use transform="matrix(0.05,0,0,0.05,12,0)" xlink:href="#Q"/><use transform="matrix(0.05,0,0,0.05,17.95,0)" xlink:href="#Q"/><use transform="matrix(0.05,0,0,0.05,23.9,0)" xlink:href="#G"/><use transform="matrix(0.05,0,0,0.05,33.9,0)" xlink:href="#Q"/></g></defs></g></svg>