<svg xmlns="http://www.w3.org/2000/svg" xmlns:xlink="http://www.w3.org/1999/xlink" xmlns:lucid="lucid" width="1566" height="911"><g transform="translate(-194 0)" lucid:page-tab-id="0_0"><path d="M299.75 369.75c0 10.9-8.84 19.75-19.75 19.75-10.9 0-19.75-8.84-19.75-19.75 0-10.9 8.84-19.75 19.75-19.75 10.9 0 19.75 8.85 19.75 19.75z" stroke="#000" fill="#ffeca9"/><path d="M240 355c0-2.76 2.24-5 5-5h70c2.76 0 5 2.24 5 5v148c0 2.76-2.24 5-5 5h-70c-2.76 0-5-2.24-5-5z" fill="none"/><path d="M280 389.5v50.3c0 2.76 1.2 6.9 2.67 9.23L320 508m-40-63.2L240 508m0-98.75h80" stroke="#000" fill="none"/><use xlink:href="#a" transform="matrix(1,0,0,1,160,508.0028662204843) translate(80.65061111111112 24.444444444444446)"/><path d="M1619.75 659.75c0 10.9-8.84 19.75-19.75 19.75-10.9 0-19.75-8.84-19.75-19.75 0-10.9 8.84-19.75 19.75-19.75 10.9 0 19.75 8.84 19.75 19.75z" stroke="#000" fill="#a3d977"/><path d="M1560 645c0-2.76 2.24-5 5-5h70c2.76 0 5 2.24 5 5v148c0 2.76-2.24 5-5 5h-70c-2.76 0-5-2.24-5-5z" fill="none"/><path d="M1600 679.5v50.3c0 2.76 1.2 6.9 2.67 9.22L1640 798m-40-63.2l-40 63.2m0-98.75h80" stroke="#000" fill="none"/><use xlink:href="#b" transform="matrix(1,0,0,1,1480,798) translate(31.758635802469144 24.444444444444446)"/><use xlink:href="#c" transform="matrix(1,0,0,1,1480,798) translate(84.4746851851852 24.444444444444446)"/><use xlink:href="#d" transform="matrix(1,0,0,1,1480,798) translate(127.68456172839507 24.444444444444446)"/><path d="M420 95c0-2.76 2.24-5 5-5h1070c2.76 0 5 2.24 5 5v740c0 2.76-2.24 5-5 5H425c-2.76 0-5-2.24-5-5z" stroke="#666" fill="none"/><use xlink:href="#e" transform="matrix(1,0,0,1,428,97.99999999999989) translate(471.5857962962963 21.333333333333336)"/><path d="M281.5 440.23l197.06-69.9M281.53 440.22l-3.8 1.35" stroke="#000" stroke-width="2" fill="none"/><path d="M479.5 370l.04 1.05-.67.24-.67-1.9 1.34-.48z"/><path d="M1050 170c0 22.1-29.1 40-65 40s-65-17.9-65-40 29.1-40 65-40 65 17.9 65 40z" stroke="#000" fill="#ffeca9"/><use xlink:href="#f" transform="matrix(1,0,0,1,920,129.9999999999999) translate(37.89388888888888 31.72222222222222)"/><use xlink:href="#g" transform="matrix(1,0,0,1,920,129.9999999999999) translate(47.770432098765426 31.72222222222222)"/><use xlink:href="#h" transform="matrix(1,0,0,1,920,129.9999999999999) translate(40.83216049382716 53.05555555555556)"/><use xlink:href="#i" transform="matrix(1,0,0,1,920,129.9999999999999) translate(75.40006172839506 53.05555555555556)"/><path d="M980 490c0 16.57-29.1 30-65 30s-65-13.43-65-30 29.1-30 65-30 65 13.43 65 30z" stroke="#000" fill="#c7e8ac"/><use xlink:href="#j" transform="matrix(1,0,0,1,850.0000000000614,460) translate(35.94327160493826 32.97222222222222)"/><path d="M638.58 220c0 38.66-39.98 70-89.3 70C500 290 460 258.66 460 220s39.98-70 89.3-70c49.3 0 89.28 31.34 89.28 70zM460 220h178.58" stroke="#000" fill="#ffeca9"/><use xlink:href="#k" transform="matrix(1,0,0,1,486.78689636840863,163.9999999999999) translate(41.025 31.6)"/><use xlink:href="#l" transform="matrix(1,0,0,1,486.78689636840863,243.9999999999999) translate(28.049999999999997 14.4)"/><use xlink:href="#m" transform="matrix(1,0,0,1,486.78689636840863,243.9999999999999) translate(32.525 36)"/><use xlink:href="#n" transform="matrix(1,0,0,1,486.78689636840863,243.9999999999999) translate(63 57.6)"/><use xlink:href="#o" transform="matrix(1,0,0,1,460,219.9999999999999) translate(16.674999999999983 15.6)"/><use xlink:href="#p" transform="matrix(1,0,0,1,460,219.9999999999999) translate(107.475 15.6)"/><path d="M838.76 288.8l-.47 1.94-9.6-2.33.47-1.93zm-19.2-4.66l-.46 1.94-19.2-4.66.48-1.94zm-28.78-7l-.47 1.96-19.2-4.66.5-1.95zm-29.26-5.03l-.45-.1h.47zm-85.9-22.9l-.3 1.2h-2.5v.18l-16.87-4.1.47-1.93zm-28.8-6.98l-.47 1.94-9.6-2.32.48-1.95z"/><path d="M839.53 288.98l-.03 1.02v.53l.02.5-1.25-.3.47-1.94zM656.56 236.02l-17.52 5.34 13.12 12.77-1.4 1.44-15.53-15.14 20.74-6.32z"/><use xlink:href="#q" transform="matrix(1,0,0,1,672.8059928062121,250.40117101352723) translate(-5.705500000000001 14.4)"/><path d="M646.92 199.8l-10.42 1.1-.2-1.98 10.4-1.1zm31.26-3.3l-20.84 2.2-.2-1.98 20.82-2.2zm13.9-1.46l-3.5.37-.2-1.98 3.7-.4zM803.2 183.3l-12.2 1.3v-2.02l12-1.27zm31.25-3.3l-20.84 2.2-.2-2 20.84-2.2zm31.26-3.3l-20.83 2.2-.2-2 20.83-2.2zm31.26-3.3l-20.84 2.2-.2-2 20.83-2.2zm20.84-2.2l-10.42 1.1-.2-2 10.4-1.1z"/><path d="M636.53 200.9l-.76.1-.74-1.94 1.3-.14zM919.5 170l-17.4 12.94-1.2-1.6 14.7-10.93-16.66-7.6.83-1.82z"/><use xlink:href="#r" transform="matrix(1,0,0,1,692.090473615554,178.0067198267975) translate(-5.705500000000001 14.4)"/><path d="M281.15 439.23l177.72-218.45M281.17 439.2l-2.55 3.13" stroke="#000" stroke-width="2" fill="none"/><path d="M459.5 220v.17l.04 1.18-1.46-1.2 1.47-1.8z"/><path d="M1000 290c0 38.66-35.82 70-80 70s-80-31.34-80-70 35.82-70 80-70 80 31.34 80 70zm-160 0h160" stroke="#000" fill="#ff8f80"/><use xlink:href="#s" transform="matrix(1,0,0,1,864,234.00286622048418) translate(2.0999999999999943 20.799999999999997)"/><use xlink:href="#t" transform="matrix(1,0,0,1,864,234.00286622048418) translate(65.95 20.799999999999997)"/><use xlink:href="#u" transform="matrix(1,0,0,1,864,234.00286622048418) translate(36.075 42.4)"/><use xlink:href="#v" transform="matrix(1,0,0,1,864,314.0028662204842) translate(22.574999999999996 14.4)"/><use xlink:href="#w" transform="matrix(1,0,0,1,864,314.0028662204842) translate(25.525 36)"/><use xlink:href="#o" transform="matrix(1,0,0,1,840,290.0028662204842) translate(7.174999999999983 15.6)"/><use xlink:href="#p" transform="matrix(1,0,0,1,840,290.0028662204842) translate(97.975 15.6)"/><path d="M1265 160c0 22.1-29.1 40-65 40s-65-17.9-65-40 29.1-40 65-40 65 17.9 65 40z" stroke="#000" fill="#ffeca9"/><use xlink:href="#x" transform="matrix(1,0,0,1,1135.0000000000039,120.00286622048418) translate(39.05499999999999 31.9)"/><use xlink:href="#w" transform="matrix(1,0,0,1,1135.0000000000039,120.00286622048418) translate(34.53 53.5)"/><path d="M1010.2 283.47l-7.66 6.17-1.25-1.56 7.65-6.17zm23-18.5l-15.33 12.33-1.25-1.56 15.32-12.34zm23-18.52l-15.34 12.34-1.25-1.57 15.34-12.34zm7.65-6.17l-1.25-1.56 1.8-1.46h3.2zm38.32-30.85l-7.74 6.23h-3.2l9.7-7.8zm23-18.5l-15.33 12.33-1.26-1.56 15.33-12.34zm15.32-12.35l-7.67 6.17-1.26-1.56 7.67-6.18z"/><path d="M1140.64 177.17l.64.77-.8.65-1.26-1.57.85-.68zM1010 270.4l-6.44 17.14 18.12-2.62.3 1.97-21.48 3.1 7.62-20.3z"/><use xlink:href="#q" transform="matrix(1,0,0,1,1031.4211711699004,215.66091478904164) translate(-5.705500000000001 14.4)"/><path d="M1012.84 417.57l-.28 1.98-9.82-1.36.27-2zm-19.65-2.72l-.3 1.98-19.63-2.7.27-2zm-29.48-4.07l-.28 1.98-19.64-2.72.27-1.98zm-29.47-4.08l-.28 1.98-19.64-2.72.27-1.98zm-29.47-4.08l-.28 2-19.65-2.73.28-2zm-29.48-4.07l-.27 1.98-19.65-2.72.28-1.97zm-117.88-16.3l-.27 1.97-19.65-2.7.27-2zm-29.47-4.08l-.27 1.98-19.65-2.72.27-1.98zm-29.47-4.08l-.28 1.97-19.64-2.72.27-1.98zM669 370l-.27 2-19.64-2.72.26-1.98zm-29.46-4.06l-.28 1.98-19.65-2.72.3-1.98zm-29.47-4.08l-.28 1.98-9.83-1.36.27-1.98z"/><path d="M600.27 360.5l-.28 2-.58-.1-.36-1.25-.33-.86zM1014.5 418.8l-20 8.4-.78-1.86 16.9-7.07-14.35-11.4 1.25-1.56z"/><use xlink:href="#q" transform="matrix(1,0,0,1,758.8069534724707,379.2835141879468) translate(-5.705500000000001 14.4)"/><path d="M1470 381.75c0 22.1-29.1 40-65 40s-65-17.9-65-40 29.1-40 65-40 65 17.9 65 40z" stroke="#000" fill="#ffeca9"/><use xlink:href="#y" transform="matrix(1,0,0,1,1340,341.7461641975184) translate(43.53 31.9)"/><use xlink:href="#z" transform="matrix(1,0,0,1,1340,341.7461641975184) translate(40.605000000000004 53.5)"/><path d="M1619.75 419.75c0 10.9-8.84 19.75-19.75 19.75-10.9 0-19.75-8.84-19.75-19.75 0-10.9 8.84-19.75 19.75-19.75 10.9 0 19.75 8.84 19.75 19.75z" stroke="#000" fill="#c1e4f7"/><path d="M1560 405c0-2.76 2.24-5 5-5h70c2.76 0 5 2.24 5 5v148c0 2.76-2.24 5-5 5h-70c-2.76 0-5-2.24-5-5z" fill="none"/><path d="M1600 439.5v50.3c0 2.76 1.2 6.9 2.67 9.22L1640 558m-40-63.2l-40 63.2m0-98.75h80" stroke="#000" fill="none"/><use xlink:href="#A" transform="matrix(1,0,0,1,1480,558) translate(41.3895 14.4)"/><use xlink:href="#B" transform="matrix(1,0,0,1,1480,558) translate(124.2395 14.4)"/><use xlink:href="#C" transform="matrix(1,0,0,1,1480,558) translate(73.07499999999999 36)"/><path d="M1201 265.95l-.3 1.9-2.13 2.9-3.4 1.12h-95.1l-1.25.2-2 1.47-.82 2.5v64.2h-2v-64.52l1.1-3.42 2.92-2.12 1.9-.3h94.92l2.5-.82 1.46-2 .2-1.27V219h2z"/><path d="M1096 341.28l-1-.03h-1v-1.03h2z"/><path d="M1204.64 218h-9.28l4.64-14.26z" fill="#fff"/><path d="M1206 219h-12l6-18.5zm-9.26-2h6.52l-3.26-10.02z"/><path d="M1405 340.25v-64.38c0-2.76-2.24-5-5-5h-195c-2.76 0-5-2.23-5-5V225" stroke="#000" stroke-width="2" fill="none"/><path d="M1406 341.28l-1-.03h-1v-1.03h2z"/><path d="M1212.73 224h-25.46l12.73-21.53z" fill="#fff"/><path d="M1214.48 225h-28.96l14.48-24.5zm-25.45-2h21.94L1200 204.42z"/><path d="M1175 418.8c0 42.57-35.82 77.07-80 77.07s-80-34.5-80-77.06c0-42.55 35.82-77.05 80-77.05s80 34.5 80 77.06zm-160 0h160" stroke="#000" fill="#c1e4f7"/><use xlink:href="#D" transform="matrix(1,0,0,1,1039.0000000000307,357.1588559876425) translate(14.125 34.6)"/><use xlink:href="#E" transform="matrix(1,0,0,1,1039.0000000000307,357.1588559876425) translate(67.025 34.6)"/><use xlink:href="#F" transform="matrix(1,0,0,1,1039.0000000000307,442.80962314813877) translate(14.574999999999996 14.4)"/><use xlink:href="#G" transform="matrix(1,0,0,1,1039.0000000000307,442.80962314813877) translate(5.074999999999996 36)"/><use xlink:href="#w" transform="matrix(1,0,0,1,1039.0000000000307,442.80962314813877) translate(45.975 36)"/><use xlink:href="#o" transform="matrix(1,0,0,1,1015.0000000000307,418.80962314813877) translate(7.174999999999983 15.6)"/><use xlink:href="#p" transform="matrix(1,0,0,1,1015.0000000000307,418.80962314813877) translate(97.975 15.6)"/><path d="M600 370c0 22.1-26.86 40-60 40s-60-17.9-60-40 26.86-40 60-40 60 17.9 60 40z" stroke="#000" fill="#ffeca9"/><use xlink:href="#H" transform="matrix(1,0,0,1,480,329.9999999999999) translate(18.57999999999999 44.4)"/><path d="M848.2 488.4l-.76 1.85-9.35-3.76.74-1.86zm-18.7-7.52l-.75 1.86-18.7-7.5.75-1.87zm-28.05-11.26l-.75 1.85-18.7-7.5.75-1.86zm-28.04-11.27l-.74 1.86-18.7-7.5.75-1.86zm-28.03-11.27l-.75 1.86-18.7-7.5.75-1.87zm-28.8-9.4l-3.77-1.52h4.4zm-55.33-24.4l-.5 1.28h-1.7l-17.24-6.93.75-1.86zm-28.04-11.26l-.75 1.85-18.7-7.5.75-1.86zm-28.04-11.27l-.75 1.86-9.34-3.75.75-1.85z"/><path d="M595.83 387l-.74 1.86-1.2-.47 1.2-1.68zM849.5 490l-21.44 3.3-.3-2 18.1-2.76L834.7 474l1.6-1.2z"/><use xlink:href="#r" transform="matrix(1,0,0,1,639.1562650110506,414.557394861977) translate(-5.705500000000001 14.4)"/><path d="M1380 578.53c0 26.8-26.86 48.53-60 48.53s-60-21.72-60-48.53c0-26.8 26.86-48.53 60-48.53s60 21.73 60 48.53z" stroke="#000" fill="#c1e4f7"/><use xlink:href="#I" transform="matrix(1,0,0,1,1260,529.9999999999998) translate(20.029999999999994 41.9625)"/><use xlink:href="#J" transform="matrix(1,0,0,1,1260,529.9999999999998) translate(67.03 41.9625)"/><use xlink:href="#K" transform="matrix(1,0,0,1,1260,529.9999999999998) translate(34.029999999999994 63.5625)"/><path d="M1598.6 490.37l-217.17 87.8M1598.56 490.38l3.74-1.5" stroke="#000" stroke-width="2" fill="none"/><path d="M1381.83 579.07l-1.38.56.05-1.1-.04-1.06.62-.25zM1274.26 544.84l-1.15 1.63-7.5-5.32 1.17-1.63zm-14.98-10.64l-1.16 1.63-15-10.64 1.17-1.64zm-22.5-15.96l-1.15 1.63-5-3.55h3.45zm-33.12-23.52h-3.46l-2.04-1.45 1.16-1.63zm-11.84-8.4l-1.15 1.63-15-10.64 1.16-1.62zm-22.48-15.96l-1.16 1.63-7.5-5.33 1.16-1.64z"/><path d="M1275.26 545.55l-.42.35-1.06 1.05-.7-.5 1.16-1.63zM1181.4 466.6l-.17 2-18.24-1.53 7.44 16.72-1.82.8-8.84-19.8z"/><use xlink:href="#q" transform="matrix(1,0,0,1,1169.1421822398474,494.71543034255376) translate(-5.705500000000001 14.4)"/><path d="M540 524.13c0 22.1-26.86 40-60 40s-60-17.9-60-40 26.86-40 60-40 60 17.9 60 40z" stroke="#000" fill="#ffeca9"/><use xlink:href="#L" transform="matrix(1,0,0,1,420,484.1326503422092) translate(36.03 31.9)"/><use xlink:href="#M" transform="matrix(1,0,0,1,420,484.1326503422092) translate(73.98 31.9)"/><use xlink:href="#N" transform="matrix(1,0,0,1,420,484.1326503422092) translate(43.53 53.5)"/><path d="M680 530c0 22.1-26.86 40-60 40s-60-17.9-60-40 26.86-40 60-40 60 17.9 60 40z" stroke="#000" fill="#ffeca9"/><use xlink:href="#O" transform="matrix(1,0,0,1,560,489.9999999999999) translate(32.05499999999999 31.9)"/><use xlink:href="#P" transform="matrix(1,0,0,1,560,489.9999999999999) translate(35.53 53.5)"/><use xlink:href="#Q" transform="matrix(1,0,0,1,560,489.9999999999999) translate(60.53 53.5)"/><path d="M620 488.5v-36.64c0-2.76-2.24-5-5-5h-65.9" stroke="#000" stroke-width="2" fill="none"/><path d="M621 489.54l-1-.04-1 .03v-1.06h2z"/><path d="M549.1 446.86h-1M480 482.63v-30.77c0-2.76 2.24-5 5-5h58.1c2.75 0 5-2.24 5-5v-7.3" stroke="#000" stroke-width="2" fill="none"/><path d="M481 483.67l-1-.04-1 .04v-1.06h2z"/><path d="M560.8 433.57h-25.44l12.73-21.52z" fill="#fff"/><path d="M562.57 434.57H533.6l14.5-24.48zm-25.45-2h21.94l-10.97-18.55z"/><path d="M1110 660c0 16.57-29.1 30-65 30s-65-13.43-65-30 29.1-30 65-30 65 13.43 65 30z" stroke="#000" fill="#c7e8ac"/><use xlink:href="#R" transform="matrix(1,0,0,1,980.0000000000614,629.9999999999999) translate(39.55499999999999 33.15)"/><path d="M1598.7 488.85l-.34 1.97-422.04-70.86.33-1.97z"/><path d="M1602.64 489.5l-.33 1.98-3.96-.66.33-1.98zM1176.68 418l-.33 1.97-.88-.15.03-1v-.65l-.02-.38z"/><path d="M860 628.5V580c0-2.76 2.24-5 5-5h45c2.76 0 5-2.24 5-5v-25.02" stroke="#000" stroke-width="2" fill="none"/><path d="M861 629.53l-1-.03h-1v-1.03h2z"/><path d="M927.73 543.98h-25.46L915 522.46z" fill="#fff"/><path d="M929.48 544.98h-28.96L915 520.5zm-25.45-2h21.94L915 524.43z"/><path d="M1045 628.5V580c0-2.76-2.24-5-5-5H920c-2.76 0-5-2.24-5-5v-25.02" stroke="#000" stroke-width="2" fill="none"/><path d="M1046 629.54l-1-.04-1 .02v-1.05h2z"/><path d="M927.73 543.98h-25.46L915 522.46z" fill="#fff"/><path d="M929.48 544.98h-28.96L915 520.5zm-25.45-2h21.94L915 524.43zM1598.9 728.73l-.66 1.9L961.58 513l.65-1.9z"/><path d="M1602.68 730.02l-.65 1.9-3.8-1.3.64-1.9zM962.25 511.12l-.64 1.9-1.98-.68.58-.23 2.03-.98z"/><path d="M540 740c0 22.1-26.86 40-60 40s-60-17.9-60-40 26.86-40 60-40 60 17.9 60 40z" stroke="#000" fill="#ffeca9"/><g><use xlink:href="#S" transform="matrix(1,0,0,1,420,699.9999999999999) translate(19.555 44.4)"/><use xlink:href="#T" transform="matrix(1,0,0,1,420,699.9999999999999) translate(53.555 44.4)"/></g><path d="M280.43 446.64L419.07 739.1M280.44 446.66l-1.73-3.63" stroke="#000" stroke-width="2" fill="none"/><path d="M419.5 740l.07 1.96.08.68-1.5-3.14 1.4-.66z"/><path d="M940 680c0 27.6-35.82 50-80 50s-80-22.4-80-50 35.82-50 80-50 80 22.4 80 50zm-160 0h160" stroke="#000" fill="#c7e8ac"/><g><use xlink:href="#U" transform="matrix(1,0,0,1,804,639.9999999999999) translate(22.525 23.6)"/></g><g><use xlink:href="#V" transform="matrix(1,0,0,1,804,703.9999999999999) translate(19.525 14.4)"/></g><g><use xlink:href="#o" transform="matrix(1,0,0,1,780,679.9999999999999) translate(7.174999999999983 15.6)"/><use xlink:href="#p" transform="matrix(1,0,0,1,780,679.9999999999999) translate(97.975 15.6)"/></g><path d="M804.1 641.28l-.9 1.8-8.46-4.3.9-1.77zm-16.9-8.54l-.9 1.78-16.9-8.54.92-1.8zm-25.33-12.82l-.9 1.8-13.83-7h4.43zm-53-26.8h-4.42l-11.03-5.6.9-1.77zm-23-11.64l-.9 1.78-16.88-8.54.9-1.8zm-25.32-12.82l-.9 1.8-8.45-4.3.9-1.77z"/><path d="M805.26 643l-21.64 1.42-.13-2 18.26-1.2-9.86-15.43 1.7-1.1zM652.13 564.4l-.9 1.8-1.74-.9 2.53-.95z"/><g><use xlink:href="#q" transform="matrix(1,0,0,1,680.0107186173115,593.1122729910642) translate(-5.705500000000001 14.4)"/></g><path d="M551.56 738.26l-9.85 2.47-.47-1.94 9.84-2.48zm29.53-7.42l-19.7 4.94-.48-1.94 19.68-4.94zm9.84-2.47l-.18-.7h2.9zm108.28-27.2l-19.5 4.9h-.2l-.47-1.88 19.7-4.96zm29.54-7.4l-19.7 4.94-.48-1.93 19.7-4.94zm29.53-7.4l-19.7 4.93-.48-1.94 19.68-4.94zm19.68-4.96l-9.84 2.48-.5-1.94 9.85-2.47z"/><path d="M541.74 740.72l-1.28.32.04-1.04-.04-1.02.8-.2zM779.5 680l-15.42 15.26-1.4-1.43 13-12.87-17.55-5.2.57-1.92z"/><g><use xlink:href="#q" transform="matrix(1,0,0,1,584.5790779007434,706.0839613484587) translate(-5.705500000000001 14.4)"/></g><defs><path d="M212-179c-10-28-35-45-73-45-59 0-87 40-87 99 0 60 29 101 89 101 43 0 62-24 78-52l27 14C228-24 195 4 139 4 59 4 22-46 18-125c-6-104 99-153 187-111 19 9 31 26 39 46" id="W"/><path d="M84 4C-5 8 30-112 23-190h32v120c0 31 7 50 39 49 72-2 45-101 50-169h31l1 190h-30c-1-10 1-25-2-33-11 22-28 36-60 37" id="X"/><path d="M135-143c-3-34-86-38-87 0 15 53 115 12 119 90S17 21 10-45l28-5c4 36 97 45 98 0-10-56-113-15-118-90-4-57 82-63 122-42 12 7 21 19 24 35" id="Y"/><path d="M59-47c-2 24 18 29 38 22v24C64 9 27 4 27-40v-127H5v-23h24l9-43h21v43h35v23H59v120" id="Z"/><path d="M100-194c62-1 85 37 85 99 1 63-27 99-86 99S16-35 15-95c0-66 28-99 85-99zM99-20c44 1 53-31 53-75 0-43-8-75-51-75s-53 32-53 75 10 74 51 75" id="aa"/><path d="M210-169c-67 3-38 105-44 169h-31v-121c0-29-5-50-35-48C34-165 62-65 56 0H25l-1-190h30c1 10-1 24 2 32 10-44 99-50 107 0 11-21 27-35 58-36 85-2 47 119 55 194h-31v-121c0-29-5-49-35-48" id="ab"/><path d="M100-194c63 0 86 42 84 106H49c0 40 14 67 53 68 26 1 43-12 49-29l28 8c-11 28-37 45-77 45C44 4 14-33 15-96c1-61 26-98 85-98zm52 81c6-60-76-77-97-28-3 7-6 17-6 28h103" id="ac"/><path d="M114-163C36-179 61-72 57 0H25l-1-190h30c1 12-1 29 2 39 6-27 23-49 58-41v29" id="ad"/><g id="a"><use transform="matrix(0.04320987654320988,0,0,0.04320987654320988,0,0)" xlink:href="#W"/><use transform="matrix(0.04320987654320988,0,0,0.04320987654320988,11.19135802469136,0)" xlink:href="#X"/><use transform="matrix(0.04320987654320988,0,0,0.04320987654320988,19.833333333333336,0)" xlink:href="#Y"/><use transform="matrix(0.04320987654320988,0,0,0.04320987654320988,27.611111111111114,0)" xlink:href="#Z"/><use transform="matrix(0.04320987654320988,0,0,0.04320987654320988,31.9320987654321,0)" xlink:href="#aa"/><use transform="matrix(0.04320987654320988,0,0,0.04320987654320988,40.574074074074076,0)" xlink:href="#ab"/><use transform="matrix(0.04320987654320988,0,0,0.04320987654320988,53.49382716049383,0)" xlink:href="#ac"/><use transform="matrix(0.04320987654320988,0,0,0.04320987654320988,62.1358024691358,0)" xlink:href="#ad"/></g><path d="M205 0l-28-72H64L36 0H1l101-248h38L239 0h-34zm-38-99l-47-123c-12 45-31 82-46 123h93" id="ae"/><path d="M106-169C34-169 62-67 57 0H25v-261h32l-1 103c12-21 28-36 61-36 89 0 53 116 60 194h-32v-121c2-32-8-49-39-48" id="af"/><path d="M117-194c89-4 53 116 60 194h-32v-121c0-31-8-49-39-48C34-167 62-67 57 0H25l-1-190h30c1 10-1 24 2 32 11-22 29-35 61-36" id="ag"/><g id="b"><use transform="matrix(0.04320987654320988,0,0,0.04320987654320988,0,0)" xlink:href="#ae"/><use transform="matrix(0.04320987654320988,0,0,0.04320987654320988,10.370370370370372,0)" xlink:href="#Z"/><use transform="matrix(0.04320987654320988,0,0,0.04320987654320988,14.691358024691363,0)" xlink:href="#af"/><use transform="matrix(0.04320987654320988,0,0,0.04320987654320988,23.333333333333336,0)" xlink:href="#ac"/><use transform="matrix(0.04320987654320988,0,0,0.04320987654320988,31.97530864197531,0)" xlink:href="#ag"/><use transform="matrix(0.04320987654320988,0,0,0.04320987654320988,40.617283950617285,0)" xlink:href="#Y"/></g><path d="M185-189c-5-48-123-54-124 2 14 75 158 14 163 119 3 78-121 87-175 55-17-10-28-26-33-46l33-7c5 56 141 63 141-1 0-78-155-14-162-118-5-82 145-84 179-34 5 7 8 16 11 25" id="ah"/><path d="M96-169c-40 0-48 33-48 73s9 75 48 75c24 0 41-14 43-38l32 2c-6 37-31 61-74 61-59 0-76-41-82-99-10-93 101-131 147-64 4 7 5 14 7 22l-32 3c-4-21-16-35-41-35" id="ai"/><path d="M143 0L79-87 56-68V0H24v-261h32v163l83-92h37l-77 82L181 0h-38" id="aj"/><g id="c"><use transform="matrix(0.04320987654320988,0,0,0.04320987654320988,0,0)" xlink:href="#ah"/><use transform="matrix(0.04320987654320988,0,0,0.04320987654320988,10.370370370370372,0)" xlink:href="#Z"/><use transform="matrix(0.04320987654320988,0,0,0.04320987654320988,14.691358024691363,0)" xlink:href="#aa"/><use transform="matrix(0.04320987654320988,0,0,0.04320987654320988,23.333333333333336,0)" xlink:href="#ai"/><use transform="matrix(0.04320987654320988,0,0,0.04320987654320988,31.111111111111114,0)" xlink:href="#aj"/></g><path d="M30 0v-248h187v28H63v79h144v27H63v87h162V0H30" id="ak"/><path d="M141 0L90-78 38 0H4l68-98-65-92h35l48 74 47-74h35l-64 92 68 98h-35" id="al"/><path d="M141-36C126-15 110 5 73 4 37 3 15-17 15-53c-1-64 63-63 125-63 3-35-9-54-41-54-24 1-41 7-42 31l-33-3c5-37 33-52 76-52 45 0 72 20 72 64v82c-1 20 7 32 28 27v20c-31 9-61-2-59-35zM48-53c0 20 12 33 32 33 41-3 63-29 60-74-43 2-92-5-92 41" id="am"/><path d="M177-190C167-65 218 103 67 71c-23-6-38-20-44-43l32-5c15 47 100 32 89-28v-30C133-14 115 1 83 1 29 1 15-40 15-95c0-56 16-97 71-98 29-1 48 16 59 35 1-10 0-23 2-32h30zM94-22c36 0 50-32 50-73 0-42-14-75-50-75-39 0-46 34-46 75s6 73 46 73" id="an"/><g id="d"><use transform="matrix(0.04320987654320988,0,0,0.04320987654320988,0,0)" xlink:href="#ak"/><use transform="matrix(0.04320987654320988,0,0,0.04320987654320988,10.370370370370372,0)" xlink:href="#al"/><use transform="matrix(0.04320987654320988,0,0,0.04320987654320988,18.148148148148152,0)" xlink:href="#ai"/><use transform="matrix(0.04320987654320988,0,0,0.04320987654320988,25.925925925925927,0)" xlink:href="#af"/><use transform="matrix(0.04320987654320988,0,0,0.04320987654320988,34.567901234567906,0)" xlink:href="#am"/><use transform="matrix(0.04320987654320988,0,0,0.04320987654320988,43.20987654320988,0)" xlink:href="#ag"/><use transform="matrix(0.04320987654320988,0,0,0.04320987654320988,51.851851851851855,0)" xlink:href="#an"/><use transform="matrix(0.04320987654320988,0,0,0.04320987654320988,60.49382716049384,0)" xlink:href="#ac"/></g><path d="M185-48c-13 30-37 53-82 52C43 2 14-33 14-96s30-98 90-98c62 0 83 45 84 108H66c0 31 8 55 39 56 18 0 30-7 34-22zm-45-69c5-46-57-63-70-21-2 6-4 13-4 21h74" id="ao"/><path d="M14-72v-43h91v43H14" id="ap"/><path d="M182-130c37 4 62 22 62 59C244 23 116-4 24 0v-248c84 5 203-23 205 63 0 31-19 50-47 55zM76-148c40-3 101 13 101-30 0-44-60-28-101-31v61zm0 110c48-3 116 14 116-37 0-48-69-32-116-35v72" id="aq"/><path d="M135-150c-39-12-60 13-60 57V0H25l-1-190h47c2 13-1 29 3 40 6-28 27-53 61-41v41" id="ar"/><path d="M110-194c64 0 96 36 96 99 0 64-35 99-97 99-61 0-95-36-95-99 0-62 34-99 96-99zm-1 164c35 0 45-28 45-65 0-40-10-65-43-65-34 0-45 26-45 65 0 36 10 65 43 65" id="as"/><path d="M147 0L96-86 75-71V0H25v-261h50v150l67-79h53l-66 74L201 0h-54" id="at"/><g id="e"><use transform="matrix(0.07407407407407408,0,0,0.07407407407407408,0,0)" xlink:href="#ao"/><use transform="matrix(0.07407407407407408,0,0,0.07407407407407408,14.814814814814817,0)" xlink:href="#ap"/><use transform="matrix(0.07407407407407408,0,0,0.07407407407407408,23.629629629629633,0)" xlink:href="#aq"/><use transform="matrix(0.07407407407407408,0,0,0.07407407407407408,42.814814814814824,0)" xlink:href="#ar"/><use transform="matrix(0.07407407407407408,0,0,0.07407407407407408,53.1851851851852,0)" xlink:href="#as"/><use transform="matrix(0.07407407407407408,0,0,0.07407407407407408,69.40740740740742,0)" xlink:href="#at"/><use transform="matrix(0.07407407407407408,0,0,0.07407407407407408,84.22222222222223,0)" xlink:href="#ao"/><use transform="matrix(0.07407407407407408,0,0,0.07407407407407408,99.03703703703704,0)" xlink:href="#ar"/></g><path d="M137 0h-34L2-248h35l83 218 83-218h36" id="au"/><path d="M24-231v-30h32v30H24zM24 0v-190h32V0H24" id="av"/><path d="M101-234c-31-9-42 10-38 44h38v23H63V0H32v-167H5v-23h27c-7-52 17-82 69-68v24" id="aw"/><path d="M179-190L93 31C79 59 56 82 12 73V49c39 6 53-20 64-50L1-190h34L92-34l54-156h33" id="ax"/><g id="g"><use transform="matrix(0.04938271604938272,0,0,0.04938271604938272,0,0)" xlink:href="#au"/><use transform="matrix(0.04938271604938272,0,0,0.04938271604938272,10.864197530864198,0)" xlink:href="#ac"/><use transform="matrix(0.04938271604938272,0,0,0.04938271604938272,20.74074074074074,0)" xlink:href="#ad"/><use transform="matrix(0.04938271604938272,0,0,0.04938271604938272,26.617283950617285,0)" xlink:href="#av"/><use transform="matrix(0.04938271604938272,0,0,0.04938271604938272,30.518518518518523,0)" xlink:href="#aw"/><use transform="matrix(0.04938271604938272,0,0,0.04938271604938272,35.45679012345679,0)" xlink:href="#ax"/></g><path d="M30 0v-248h33v221h125V0H30" id="ay"/><g id="h"><use transform="matrix(0.04938271604938272,0,0,0.04938271604938272,0,0)" xlink:href="#ay"/><use transform="matrix(0.04938271604938272,0,0,0.04938271604938272,9.876543209876544,0)" xlink:href="#aa"/><use transform="matrix(0.04938271604938272,0,0,0.04938271604938272,19.75308641975309,0)" xlink:href="#an"/></g><g id="i"><use transform="matrix(0.04938271604938272,0,0,0.04938271604938272,0,0)" xlink:href="#av"/><use transform="matrix(0.04938271604938272,0,0,0.04938271604938272,3.901234567901235,0)" xlink:href="#ag"/></g><path d="M233-177c-1 41-23 64-60 70L243 0h-38l-65-103H63V0H30v-248c88 3 205-21 203 71zM63-129c60-2 137 13 137-47 0-61-80-42-137-45v92" id="az"/><path d="M108 0H70L1-190h34L89-25l56-165h34" id="aA"/><path d="M206 0h-36l-40-164L89 0H53L-1-190h32L70-26l43-164h34l41 164 42-164h31" id="aB"/><g id="j"><use transform="matrix(0.04938271604938272,0,0,0.04938271604938272,0,0)" xlink:href="#az"/><use transform="matrix(0.04938271604938272,0,0,0.04938271604938272,12.790123456790125,0)" xlink:href="#ac"/><use transform="matrix(0.04938271604938272,0,0,0.04938271604938272,22.66666666666667,0)" xlink:href="#aA"/><use transform="matrix(0.04938271604938272,0,0,0.04938271604938272,31.555555555555557,0)" xlink:href="#av"/><use transform="matrix(0.04938271604938272,0,0,0.04938271604938272,35.4567901234568,0)" xlink:href="#ac"/><use transform="matrix(0.04938271604938272,0,0,0.04938271604938272,45.33333333333334,0)" xlink:href="#aB"/></g><g id="k"><use transform="matrix(0.05,0,0,0.05,0,0)" xlink:href="#ay"/><use transform="matrix(0.05,0,0,0.05,10,0)" xlink:href="#aa"/><use transform="matrix(0.05,0,0,0.05,20,0)" xlink:href="#an"/><use transform="matrix(0.05,0,0,0.05,30,0)" xlink:href="#av"/><use transform="matrix(0.05,0,0,0.05,33.95,0)" xlink:href="#ag"/></g><path d="M33 0v-248h34V0H33" id="aC"/><g id="l"><use transform="matrix(0.05,0,0,0.05,0,0)" xlink:href="#aC"/><use transform="matrix(0.05,0,0,0.05,5,0)" xlink:href="#ag"/><use transform="matrix(0.05,0,0,0.05,15,0)" xlink:href="#ai"/><use transform="matrix(0.05,0,0,0.05,24,0)" xlink:href="#aa"/><use transform="matrix(0.05,0,0,0.05,34,0)" xlink:href="#ad"/><use transform="matrix(0.05,0,0,0.05,39.95,0)" xlink:href="#ad"/><use transform="matrix(0.05,0,0,0.05,45.900000000000006,0)" xlink:href="#ac"/><use transform="matrix(0.05,0,0,0.05,55.900000000000006,0)" xlink:href="#ai"/><use transform="matrix(0.05,0,0,0.05,64.9,0)" xlink:href="#Z"/></g><path d="M115-194c55 1 70 41 70 98S169 2 115 4C84 4 66-9 55-30l1 105H24l-1-265h31l2 30c10-21 28-34 59-34zm-8 174c40 0 45-34 45-75s-6-73-45-74c-42 0-51 32-51 76 0 43 10 73 51 73" id="aD"/><path d="M85-194c31 0 48 13 60 33l-1-100h32l1 261h-30c-2-10 0-23-3-31C134-8 116 4 85 4 32 4 16-35 15-94c0-66 23-100 70-100zm9 24c-40 0-46 34-46 75 0 40 6 74 45 74 42 0 51-32 51-76 0-42-9-74-50-73" id="aE"/><g id="m"><use transform="matrix(0.05,0,0,0.05,0,0)" xlink:href="#aD"/><use transform="matrix(0.05,0,0,0.05,10,0)" xlink:href="#am"/><use transform="matrix(0.05,0,0,0.05,20,0)" xlink:href="#Y"/><use transform="matrix(0.05,0,0,0.05,29,0)" xlink:href="#Y"/><use transform="matrix(0.05,0,0,0.05,38,0)" xlink:href="#aB"/><use transform="matrix(0.05,0,0,0.05,50.95,0)" xlink:href="#aE"/></g><path d="M24 0v-248h195v40H76v63h132v40H76v65h150V0H24" id="aF"/><path d="M144 0l-44-69L55 0H2l70-98-66-92h53l41 62 40-62h54l-67 91 71 99h-54" id="aG"/><path d="M115-3C79 11 28 4 28-45v-112H4v-33h27l15-45h31v45h36v33H77v99c-1 23 16 31 38 25v30" id="aH"/><path d="M135-194c87-1 58 113 63 194h-50c-7-57 23-157-34-157-59 0-34 97-39 157H25l-1-190h47c2 12-1 28 3 38 12-26 28-41 61-42" id="aI"/><path d="M137-138c1-29-70-34-71-4 15 46 118 7 119 86 1 83-164 76-172 9l43-7c4 19 20 25 44 25 33 8 57-30 24-41C81-84 22-81 20-136c-2-80 154-74 161-7" id="aJ"/><path d="M25-224v-37h50v37H25zM25 0v-190h50V0H25" id="aK"/><g id="o"><use transform="matrix(0.05,0,0,0.05,0,0)" xlink:href="#aF"/><use transform="matrix(0.05,0,0,0.05,12,0)" xlink:href="#aG"/><use transform="matrix(0.05,0,0,0.05,22,0)" xlink:href="#aH"/><use transform="matrix(0.05,0,0,0.05,27.950000000000003,0)" xlink:href="#ao"/><use transform="matrix(0.05,0,0,0.05,37.95,0)" xlink:href="#aI"/><use transform="matrix(0.05,0,0,0.05,48.900000000000006,0)" xlink:href="#aJ"/><use transform="matrix(0.05,0,0,0.05,58.900000000000006,0)" xlink:href="#aK"/><use transform="matrix(0.05,0,0,0.05,63.900000000000006,0)" xlink:href="#as"/><use transform="matrix(0.05,0,0,0.05,74.85000000000001,0)" xlink:href="#aI"/></g><path d="M24-248c93 1 206-16 204 79-1 75-69 88-152 82V0H24v-248zm52 121c47 0 100 7 100-41 0-47-54-39-100-39v80" id="aL"/><g id="p"><use transform="matrix(0.05,0,0,0.05,0,0)" xlink:href="#aL"/><use transform="matrix(0.05,0,0,0.05,12,0)" xlink:href="#as"/><use transform="matrix(0.05,0,0,0.05,22.950000000000003,0)" xlink:href="#aK"/><use transform="matrix(0.05,0,0,0.05,27.950000000000003,0)" xlink:href="#aI"/><use transform="matrix(0.05,0,0,0.05,38.900000000000006,0)" xlink:href="#aH"/><use transform="matrix(0.05,0,0,0.05,44.85000000000001,0)" xlink:href="#aJ"/></g><path d="M18-100v-36l175-74v27L42-118l151 64v27" id="aM"/><path d="M18-27v-27l151-64-151-65v-27l175 74v36" id="aN"/><g id="q"><use transform="matrix(0.05,0,0,0.05,0,0)" xlink:href="#aM"/><use transform="matrix(0.05,0,0,0.05,10.5,0)" xlink:href="#aM"/><use transform="matrix(0.05,0,0,0.05,21,0)" xlink:href="#ac"/><use transform="matrix(0.05,0,0,0.05,31,0)" xlink:href="#al"/><use transform="matrix(0.05,0,0,0.05,40,0)" xlink:href="#Z"/><use transform="matrix(0.05,0,0,0.05,45,0)" xlink:href="#ac"/><use transform="matrix(0.05,0,0,0.05,55,0)" xlink:href="#ag"/><use transform="matrix(0.05,0,0,0.05,65,0)" xlink:href="#aE"/><use transform="matrix(0.05,0,0,0.05,75,0)" xlink:href="#aN"/><use transform="matrix(0.05,0,0,0.05,85.5,0)" xlink:href="#aN"/></g><path d="M24 0v-261h32V0H24" id="aO"/><g id="r"><use transform="matrix(0.05,0,0,0.05,0,0)" xlink:href="#aM"/><use transform="matrix(0.05,0,0,0.05,10.5,0)" xlink:href="#aM"/><use transform="matrix(0.05,0,0,0.05,21,0)" xlink:href="#av"/><use transform="matrix(0.05,0,0,0.05,24.95,0)" xlink:href="#ag"/><use transform="matrix(0.05,0,0,0.05,34.95,0)" xlink:href="#ai"/><use transform="matrix(0.05,0,0,0.05,43.95,0)" xlink:href="#aO"/><use transform="matrix(0.05,0,0,0.05,47.900000000000006,0)" xlink:href="#X"/><use transform="matrix(0.05,0,0,0.05,57.900000000000006,0)" xlink:href="#aE"/><use transform="matrix(0.05,0,0,0.05,67.9,0)" xlink:href="#ac"/><use transform="matrix(0.05,0,0,0.05,77.9,0)" xlink:href="#aN"/><use transform="matrix(0.05,0,0,0.05,88.4,0)" xlink:href="#aN"/></g><path d="M30-248c118-7 216 8 213 122C240-48 200 0 122 0H30v-248zM63-27c89 8 146-16 146-99s-60-101-146-95v194" id="aP"/><g id="s"><use transform="matrix(0.05,0,0,0.05,0,0)" xlink:href="#aP"/><use transform="matrix(0.05,0,0,0.05,12.950000000000001,0)" xlink:href="#av"/><use transform="matrix(0.05,0,0,0.05,16.900000000000002,0)" xlink:href="#Y"/><use transform="matrix(0.05,0,0,0.05,25.900000000000002,0)" xlink:href="#aD"/><use transform="matrix(0.05,0,0,0.05,35.900000000000006,0)" xlink:href="#aO"/><use transform="matrix(0.05,0,0,0.05,39.85000000000001,0)" xlink:href="#am"/><use transform="matrix(0.05,0,0,0.05,49.85000000000001,0)" xlink:href="#ax"/></g><g id="t"><use transform="matrix(0.05,0,0,0.05,0,0)" xlink:href="#ay"/><use transform="matrix(0.05,0,0,0.05,10,0)" xlink:href="#aa"/><use transform="matrix(0.05,0,0,0.05,20,0)" xlink:href="#an"/><use transform="matrix(0.05,0,0,0.05,30,0)" xlink:href="#av"/><use transform="matrix(0.05,0,0,0.05,33.95,0)" xlink:href="#ag"/></g><g id="u"><use transform="matrix(0.05,0,0,0.05,0,0)" xlink:href="#ak"/><use transform="matrix(0.05,0,0,0.05,12,0)" xlink:href="#ad"/><use transform="matrix(0.05,0,0,0.05,17.95,0)" xlink:href="#ad"/><use transform="matrix(0.05,0,0,0.05,23.9,0)" xlink:href="#aa"/><use transform="matrix(0.05,0,0,0.05,33.9,0)" xlink:href="#ad"/></g><g id="v"><use transform="matrix(0.05,0,0,0.05,0,0)" xlink:href="#az"/><use transform="matrix(0.05,0,0,0.05,12.950000000000001,0)" xlink:href="#ac"/><use transform="matrix(0.05,0,0,0.05,22.950000000000003,0)" xlink:href="#Z"/><use transform="matrix(0.05,0,0,0.05,27.950000000000003,0)" xlink:href="#ad"/><use transform="matrix(0.05,0,0,0.05,33.900000000000006,0)" xlink:href="#av"/><use transform="matrix(0.05,0,0,0.05,37.85000000000001,0)" xlink:href="#ac"/><use transform="matrix(0.05,0,0,0.05,47.85000000000001,0)" xlink:href="#aA"/><use transform="matrix(0.05,0,0,0.05,56.85,0)" xlink:href="#ac"/></g><g id="w"><use transform="matrix(0.05,0,0,0.05,0,0)" xlink:href="#aD"/><use transform="matrix(0.05,0,0,0.05,10,0)" xlink:href="#am"/><use transform="matrix(0.05,0,0,0.05,20,0)" xlink:href="#Y"/><use transform="matrix(0.05,0,0,0.05,29,0)" xlink:href="#Y"/><use transform="matrix(0.05,0,0,0.05,38,0)" xlink:href="#aB"/><use transform="matrix(0.05,0,0,0.05,50.95,0)" xlink:href="#aE"/></g><path d="M63-220v92h138v28H63V0H30v-248h175v28H63" id="aQ"/><g id="x"><use transform="matrix(0.05,0,0,0.05,0,0)" xlink:href="#aQ"/><use transform="matrix(0.05,0,0,0.05,10.950000000000001,0)" xlink:href="#aa"/><use transform="matrix(0.05,0,0,0.05,20.950000000000003,0)" xlink:href="#ad"/><use transform="matrix(0.05,0,0,0.05,26.900000000000002,0)" xlink:href="#an"/><use transform="matrix(0.05,0,0,0.05,36.900000000000006,0)" xlink:href="#aa"/><use transform="matrix(0.05,0,0,0.05,46.900000000000006,0)" xlink:href="#Z"/></g><g id="y"><use transform="matrix(0.05,0,0,0.05,0,0)" xlink:href="#ak"/><use transform="matrix(0.05,0,0,0.05,12,0)" xlink:href="#ag"/><use transform="matrix(0.05,0,0,0.05,22,0)" xlink:href="#Z"/><use transform="matrix(0.05,0,0,0.05,27,0)" xlink:href="#ac"/><use transform="matrix(0.05,0,0,0.05,37,0)" xlink:href="#ad"/></g><path d="M16-82v-28h88v28H16" id="aR"/><g id="z"><use transform="matrix(0.05,0,0,0.05,0,0)" xlink:href="#ac"/><use transform="matrix(0.05,0,0,0.05,10,0)" xlink:href="#aR"/><use transform="matrix(0.05,0,0,0.05,15.949999999999998,0)" xlink:href="#ab"/><use transform="matrix(0.05,0,0,0.05,30.899999999999995,0)" xlink:href="#am"/><use transform="matrix(0.05,0,0,0.05,40.9,0)" xlink:href="#av"/><use transform="matrix(0.05,0,0,0.05,44.85,0)" xlink:href="#aO"/></g><g id="A"><use transform="matrix(0.05,0,0,0.05,0,0)" xlink:href="#W"/><use transform="matrix(0.05,0,0,0.05,12.950000000000001,0)" xlink:href="#X"/><use transform="matrix(0.05,0,0,0.05,22.950000000000003,0)" xlink:href="#Y"/><use transform="matrix(0.05,0,0,0.05,31.950000000000003,0)" xlink:href="#Z"/><use transform="matrix(0.05,0,0,0.05,36.95,0)" xlink:href="#aa"/><use transform="matrix(0.05,0,0,0.05,46.95,0)" xlink:href="#ab"/><use transform="matrix(0.05,0,0,0.05,61.900000000000006,0)" xlink:href="#ac"/><use transform="matrix(0.05,0,0,0.05,71.9,0)" xlink:href="#ad"/></g><g id="B"><use transform="matrix(0.05,0,0,0.05,0,0)" xlink:href="#ah"/><use transform="matrix(0.05,0,0,0.05,12,0)" xlink:href="#X"/><use transform="matrix(0.05,0,0,0.05,22,0)" xlink:href="#aD"/><use transform="matrix(0.05,0,0,0.05,32,0)" xlink:href="#aD"/><use transform="matrix(0.05,0,0,0.05,42,0)" xlink:href="#aa"/><use transform="matrix(0.05,0,0,0.05,52,0)" xlink:href="#ad"/><use transform="matrix(0.05,0,0,0.05,57.95,0)" xlink:href="#Z"/></g><g id="C"><use transform="matrix(0.05,0,0,0.05,0,0)" xlink:href="#aP"/><use transform="matrix(0.05,0,0,0.05,12.950000000000001,0)" xlink:href="#ac"/><use transform="matrix(0.05,0,0,0.05,22.950000000000003,0)" xlink:href="#aD"/><use transform="matrix(0.05,0,0,0.05,32.95,0)" xlink:href="#am"/><use transform="matrix(0.05,0,0,0.05,42.95,0)" xlink:href="#ad"/><use transform="matrix(0.05,0,0,0.05,48.900000000000006,0)" xlink:href="#Z"/><use transform="matrix(0.05,0,0,0.05,53.900000000000006,0)" xlink:href="#ab"/><use transform="matrix(0.05,0,0,0.05,68.85000000000001,0)" xlink:href="#ac"/><use transform="matrix(0.05,0,0,0.05,78.85000000000001,0)" xlink:href="#ag"/><use transform="matrix(0.05,0,0,0.05,88.85000000000001,0)" xlink:href="#Z"/></g><path d="M33 0v-38h34V0H33" id="aS"/><g id="D"><use transform="matrix(0.05,0,0,0.05,0,0)" xlink:href="#W"/><use transform="matrix(0.05,0,0,0.05,12.950000000000001,0)" xlink:href="#aS"/><use transform="matrix(0.05,0,0,0.05,17.950000000000003,0)" xlink:href="#ah"/><use transform="matrix(0.05,0,0,0.05,29.950000000000003,0)" xlink:href="#aS"/><use transform="matrix(0.05,0,0,0.05,34.95,0)" xlink:href="#aP"/></g><g id="E"><use transform="matrix(0.05,0,0,0.05,0,0)" xlink:href="#W"/><use transform="matrix(0.05,0,0,0.05,12.950000000000001,0)" xlink:href="#am"/><use transform="matrix(0.05,0,0,0.05,22.950000000000003,0)" xlink:href="#aO"/><use transform="matrix(0.05,0,0,0.05,26.900000000000002,0)" xlink:href="#aO"/></g><g id="F"><use transform="matrix(0.05,0,0,0.05,0,0)" xlink:href="#W"/><use transform="matrix(0.05,0,0,0.05,12.950000000000001,0)" xlink:href="#aa"/><use transform="matrix(0.05,0,0,0.05,22.950000000000003,0)" xlink:href="#ab"/><use transform="matrix(0.05,0,0,0.05,37.900000000000006,0)" xlink:href="#ab"/><use transform="matrix(0.05,0,0,0.05,52.85,0)" xlink:href="#am"/><use transform="matrix(0.05,0,0,0.05,62.85,0)" xlink:href="#ag"/><use transform="matrix(0.05,0,0,0.05,72.85000000000001,0)" xlink:href="#aE"/></g><path d="M190 0L58-211 59 0H30v-248h39L202-35l-2-213h31V0h-41" id="aT"/><g id="G"><use transform="matrix(0.05,0,0,0.05,0,0)" xlink:href="#aT"/><use transform="matrix(0.05,0,0,0.05,12.950000000000001,0)" xlink:href="#ac"/><use transform="matrix(0.05,0,0,0.05,22.950000000000003,0)" xlink:href="#aB"/></g><g id="H"><use transform="matrix(0.05,0,0,0.05,0,0)" xlink:href="#W"/><use transform="matrix(0.05,0,0,0.05,12.950000000000001,0)" xlink:href="#aa"/><use transform="matrix(0.05,0,0,0.05,22.950000000000003,0)" xlink:href="#ab"/><use transform="matrix(0.05,0,0,0.05,37.900000000000006,0)" xlink:href="#ab"/><use transform="matrix(0.05,0,0,0.05,52.85,0)" xlink:href="#am"/><use transform="matrix(0.05,0,0,0.05,62.85,0)" xlink:href="#ag"/><use transform="matrix(0.05,0,0,0.05,72.85000000000001,0)" xlink:href="#aE"/></g><g id="I"><use transform="matrix(0.05,0,0,0.05,0,0)" xlink:href="#ah"/><use transform="matrix(0.05,0,0,0.05,12,0)" xlink:href="#ac"/><use transform="matrix(0.05,0,0,0.05,22,0)" xlink:href="#ag"/><use transform="matrix(0.05,0,0,0.05,32,0)" xlink:href="#aE"/></g><g id="J"><use transform="matrix(0.05,0,0,0.05,0,0)" xlink:href="#ag"/><use transform="matrix(0.05,0,0,0.05,10,0)" xlink:href="#ac"/><use transform="matrix(0.05,0,0,0.05,20,0)" xlink:href="#aB"/></g><g id="K"><use transform="matrix(0.05,0,0,0.05,0,0)" xlink:href="#aD"/><use transform="matrix(0.05,0,0,0.05,10,0)" xlink:href="#am"/><use transform="matrix(0.05,0,0,0.05,20,0)" xlink:href="#Y"/><use transform="matrix(0.05,0,0,0.05,29,0)" xlink:href="#aB"/><use transform="matrix(0.05,0,0,0.05,41.95,0)" xlink:href="#aE"/></g><g id="L"><use transform="matrix(0.05,0,0,0.05,0,0)" xlink:href="#az"/><use transform="matrix(0.05,0,0,0.05,12.950000000000001,0)" xlink:href="#X"/><use transform="matrix(0.05,0,0,0.05,22.950000000000003,0)" xlink:href="#ag"/></g><use transform="matrix(0.05,0,0,0.05,0,0)" xlink:href="#am" id="M"/><g id="N"><use transform="matrix(0.05,0,0,0.05,0,0)" xlink:href="#ag"/><use transform="matrix(0.05,0,0,0.05,10,0)" xlink:href="#ac"/><use transform="matrix(0.05,0,0,0.05,20,0)" xlink:href="#aB"/></g><g id="O"><use transform="matrix(0.05,0,0,0.05,0,0)" xlink:href="#W"/><use transform="matrix(0.05,0,0,0.05,12.950000000000001,0)" xlink:href="#am"/><use transform="matrix(0.05,0,0,0.05,22.950000000000003,0)" xlink:href="#ag"/><use transform="matrix(0.05,0,0,0.05,32.95,0)" xlink:href="#ai"/><use transform="matrix(0.05,0,0,0.05,41.95,0)" xlink:href="#ac"/><use transform="matrix(0.05,0,0,0.05,51.95,0)" xlink:href="#aO"/></g><g id="P"><use transform="matrix(0.05,0,0,0.05,0,0)" xlink:href="#am"/><use transform="matrix(0.05,0,0,0.05,10,0)" xlink:href="#ag"/></g><g id="Q"><use transform="matrix(0.05,0,0,0.05,0,0)" xlink:href="#aa"/><use transform="matrix(0.05,0,0,0.05,10,0)" xlink:href="#aO"/><use transform="matrix(0.05,0,0,0.05,13.949999999999998,0)" xlink:href="#aE"/></g><path d="M24-231v-30h32v30H24zM-9 49c24 4 33-6 33-30v-209h32V24c2 40-23 58-65 49V49" id="aU"/><g id="R"><use transform="matrix(0.05,0,0,0.05,0,0)" xlink:href="#az"/><use transform="matrix(0.05,0,0,0.05,12.950000000000001,0)" xlink:href="#ac"/><use transform="matrix(0.05,0,0,0.05,22.950000000000003,0)" xlink:href="#aU"/><use transform="matrix(0.05,0,0,0.05,26.900000000000002,0)" xlink:href="#ac"/><use transform="matrix(0.05,0,0,0.05,36.900000000000006,0)" xlink:href="#ai"/><use transform="matrix(0.05,0,0,0.05,45.900000000000006,0)" xlink:href="#Z"/></g><path d="M143 4C61 4 22-44 18-125c-5-107 100-154 193-111 17 8 29 25 37 43l-32 9c-13-25-37-40-76-40-61 0-88 39-88 99 0 61 29 100 91 101 35 0 62-11 79-27v-45h-74v-28h105v86C228-13 192 4 143 4" id="aV"/><g id="S"><use transform="matrix(0.05,0,0,0.05,0,0)" xlink:href="#aV"/><use transform="matrix(0.05,0,0,0.05,14,0)" xlink:href="#ac"/><use transform="matrix(0.05,0,0,0.05,24,0)" xlink:href="#Z"/></g><g id="T"><use transform="matrix(0.05,0,0,0.05,0,0)" xlink:href="#ad"/><use transform="matrix(0.05,0,0,0.05,5.95,0)" xlink:href="#ac"/><use transform="matrix(0.05,0,0,0.05,15.949999999999998,0)" xlink:href="#aD"/><use transform="matrix(0.05,0,0,0.05,25.950000000000003,0)" xlink:href="#aa"/><use transform="matrix(0.05,0,0,0.05,35.95,0)" xlink:href="#ad"/><use transform="matrix(0.05,0,0,0.05,41.900000000000006,0)" xlink:href="#Z"/></g><g id="U"><use transform="matrix(0.05,0,0,0.05,0,0)" xlink:href="#ae"/><use transform="matrix(0.05,0,0,0.05,12,0)" xlink:href="#aD"/><use transform="matrix(0.05,0,0,0.05,22,0)" xlink:href="#aD"/><use transform="matrix(0.05,0,0,0.05,32,0)" xlink:href="#ad"/><use transform="matrix(0.05,0,0,0.05,37.95,0)" xlink:href="#aa"/><use transform="matrix(0.05,0,0,0.05,47.95,0)" xlink:href="#aA"/><use transform="matrix(0.05,0,0,0.05,56.95,0)" xlink:href="#ac"/></g><path d="M140-251c81 0 123 46 123 126C263-46 219 4 140 4 59 4 17-45 17-125s42-126 123-126zm0 227c63 0 89-41 89-101s-29-99-89-99c-61 0-89 39-89 99S79-25 140-24" id="aW"/><g id="V"><use transform="matrix(0.05,0,0,0.05,0,0)" xlink:href="#aW"/><use transform="matrix(0.05,0,0,0.05,14,0)" xlink:href="#X"/><use transform="matrix(0.05,0,0,0.05,24,0)" xlink:href="#Z"/><use transform="matrix(0.05,0,0,0.05,29,0)" xlink:href="#ai"/><use transform="matrix(0.05,0,0,0.05,38,0)" xlink:href="#aa"/><use transform="matrix(0.05,0,0,0.05,48,0)" xlink:href="#ab"/><use transform="matrix(0.05,0,0,0.05,62.95,0)" xlink:href="#ac"/></g></defs></g></svg>